<mxfile host="app.diagrams.net" agent="Mozilla/5.0 (Windows NT 10.0; Win64; x64) AppleWebKit/537.36 (KHTML, like Gecko) Chrome/137.0.0.0 Safari/537.36" version="27.2.0">
  <diagram name="Página-1" id="MVhh1UY8BMHpgWFhz1G3">
    <mxGraphModel dx="2505" dy="2043" grid="1" gridSize="10" guides="1" tooltips="1" connect="1" arrows="1" fold="1" page="1" pageScale="1" pageWidth="827" pageHeight="1169" math="0" shadow="0">
      <root>
        <mxCell id="0" />
        <mxCell id="1" parent="0" />
        <mxCell id="5jF6SuSO1Cwy05-sx3Pc-1" value="" style="rounded=0;whiteSpace=wrap;html=1;" vertex="1" parent="1">
          <mxGeometry x="-410" y="20" width="1640" height="780" as="geometry" />
        </mxCell>
        <mxCell id="5jF6SuSO1Cwy05-sx3Pc-2" value="&lt;h1 style=&quot;margin-top: 0px;&quot;&gt;Strategy&lt;/h1&gt;&lt;p&gt;Pode ser utilizado na camada de domínio para definir uma família de algoritmos ou comportamentos e torná-los intercambiáveis. Ele pode ser usado, por exemplo, para definir diferentes formas de calculos, com base no tipo de calculo.&lt;/p&gt;" style="text;html=1;whiteSpace=wrap;overflow=hidden;rounded=0;" vertex="1" parent="1">
          <mxGeometry x="-380" y="60" width="310" height="120" as="geometry" />
        </mxCell>
        <mxCell id="5jF6SuSO1Cwy05-sx3Pc-3" value="&lt;font style=&quot;font-size: 18px;&quot;&gt;Design Software Cálculo API&lt;/font&gt;" style="text;html=1;align=center;verticalAlign=middle;whiteSpace=wrap;rounded=0;" vertex="1" parent="1">
          <mxGeometry x="251" y="30" width="326" height="30" as="geometry" />
        </mxCell>
        <mxCell id="5jF6SuSO1Cwy05-sx3Pc-4" value="&lt;p style=&quot;margin:0px;margin-top:4px;text-align:center;&quot;&gt;&lt;i&gt;&amp;lt;&amp;lt;Interface&amp;gt;&amp;gt;&lt;/i&gt;&lt;br/&gt;&lt;b&gt;Interface&lt;/b&gt;&lt;/p&gt;&lt;hr size=&quot;1&quot; style=&quot;border-style:solid;&quot;/&gt;&lt;p style=&quot;margin:0px;margin-left:4px;&quot;&gt;+ field1: Type&lt;br/&gt;+ field2: Type&lt;/p&gt;&lt;hr size=&quot;1&quot; style=&quot;border-style:solid;&quot;/&gt;&lt;p style=&quot;margin:0px;margin-left:4px;&quot;&gt;+ method1(Type): Type&lt;br/&gt;+ method2(Type, Type): Type&lt;/p&gt;" style="verticalAlign=top;align=left;overflow=fill;html=1;whiteSpace=wrap;" vertex="1" parent="1">
          <mxGeometry x="390" y="300" width="220" height="140" as="geometry" />
        </mxCell>
        <mxCell id="5jF6SuSO1Cwy05-sx3Pc-5" value="" style="shape=image;verticalLabelPosition=bottom;labelBackgroundColor=default;verticalAlign=top;aspect=fixed;imageAspect=0;image=data:image/webp,UklGRpbZAABXRUJQVlA4IIrZAABwuwGdASroA1ACPm02l0kkIyIhIpdowIANiWdu20+/tP857L6F+a/3/+r/3T/ff4D1vOx/sT/I/0H94v8h2Q/43+e/2D/LfwDpF5h/w34jfAF+sfxD+U/zf9hv7V//Ny/tl6gv4n/EP77/V/8n/u/3//+3nE/Yn0IvFP7p7gH82/qv+t/s3+v/af2peTv6//yPUZ/If8X/1/Xv/Gf9T/E/5z//+y385/yX/U/yv7//JL+U/0v/df4v/Q/+H9////5SPpMfwD0g4i/gGU16s+Y8wDwIsA5qHE/4x/Qvx9/HPyQO0A/Gb5AP4x/Dvxd/KXcAP4J/BP5B+Ov9F/9/UAfzz+n/cB9BX8U/n/5P74R/Bf7H+Tfw1/M/6T9qHs4/Gv8Z/bfy8/wH0C/h38Z/rH9c/xn+Z/w//7+jP2APQA/Rb+9/3b/b/JeR6nMd+bwY7sFzH+x+x3xWOld/V/+V6hf2D/Yf3UvRB6AH9v6j30APLk/cP4Xf2+/dH2p///nGf8A/Fr2/dzf1X8tP7R/xvV3w1+KPar+4/+D3Q/6Dv/cvf338l/cL+N/Zv7T/VP2r/vv7rffD9v/uf2yeifwc/bfzK/u/yEfkH8g/rf9Z/aL+uftl9Tvy3+b+xrx0NH/xv/M/t3sEetfzD/I/2T90f8P6Hv8h/WPUn6s/57+i/jN9gH8o/nX+I/rf7qfv////ur/F+El9i/z37AfAJ/NP7D/uv65+Wf0tfxn/V/tf5N+0r8//vX/S/sP+g/af7CP5V/Wf93/Y/8t/4v9V////z94X//9vX7Xf//3SP2W/+vFMaBEtbvYsymYOYMebTMHMGPNpmDmDHm0zBzBjzaZg5gx5tMwcwY82mYOYMebTMHMGPNpmDmDHmvhqeWjFpGUCzRVZvBHF8DCCjp5IIoWaKrONZBRvN21Fo2qYJbpuJLJuBMMe3KGiqzjantZxtT2s42tu0Rwk8VZbg0n8slFbCHXcHtVC7N8PvIaTpT1NPd1bbiRkiaXuayKv/1iSrZwfZB2vba66fIbjObr4m9vxslc734tT/3JtVwKa5w7mv7WdXb2VZk6UzC7wh3WZFxWor4ANrl7/YzhyoW3uZYSg2R/gLdZ+WjR8vKqiSS/ke1Qj8FivuA2er+D3BY31JSIOkM3QQcOMmYajYDlr6h3f5/0zdmympqVB3QaOmObrRfWiip2gTnJC45CFwc3Qz5GI0KkIDv5KdVrnfKIykj95meXOq60MxJcMvUiefG/sxqsd1XdlYEEvf8t3YsZ1vuJCvTPP3W/MFT6yrUDOULK8lAV4Xd9VN1Z0l6CXpCsenUposzDKShcxlefyh5HdBVZxtT2s9yZ9sXpyJNuffKyGQhjVh2YR+187udnR7a7urmeuXAvkDXIxynPQa2cJ6s6tarBRUr5MeJTNOQOWtB+UPI7oKrONqe1nuTaj6MVSqzjanttRSWFFEK1SfTTSRc3PpppIu0n03AkXNlg3BjXaT6aZASO6CqzjantZx12p7WcbU9rONqe1nG1PazjantZxtT2s42p7WcbU9rONqe1nG1PazjQgb193529Yjuvu8mp+mrONqe1nG1PazjantZxtT2s42p7WcbU9rONqe1nG1PazjantZxtTy3dWhEm/1So8EJJMTCacE30izCz96mE+zhpPB/yHzzRG4lPd1c0UcLQ5e0qAsQk+FBFdfae7q5oqs42p7WcbU9rONqe1nG1PazjantZsKxUF2K6Bnt/+cA+xXkltI2vyexnk/UM9p44yPO1J4zHeA8vv+1CQH02Lp/FVm72//eerqV8CIXVIyjYGmTzq5oqs42p7WcbU9rONqe1nG1PazjanmCYYankdRlvoxDjcYQKmtb7UboLuY9osu9kp+4oHx0EwF5HOw26GEhYVgR3obF0/iqlEr+FP6F3+LMpmDmC74gJa1Idwjugqs42p7WcbU9rONqP2LT3dW7t/EtAtP7w4Jxe1VRF7MQUqyCA2cWljgocddB/WgDljHS2X6UJ2X5JZVXiCcLmTTwtIEv0eU1Gt2X396hHLuUS1AZ7O2m6uaKrONqe1nG09oiYQszhQmWgFiRozbL/wV82furjQi6D0rPvHLCDnb2L1dfd+dvVKrPcMemU1oZEUrS8+lFBjXvKl5orlLHgz/iOuYAVZ6UcjB0BP8To9nvcKWF2ZAhgSO6CqzjantTBVnXyrlpxRMqof9kvM21Ww2n0/VoZuLoJXNFVnG1PbCCfoYTfgo5tnjVv4VpJHsEBcbDcTvantZxtT2s4z8eWuhRM5CA1n8J9AZ6nvFToboARuHmzIjyi1+NTMI9Glg8RCVx2XDmc8TUYFxww+CvDyO6CqzjanthCFMnMc8jFC7PxDrcfnI2r6apwia2WO9BIZWHuy+eCRT4WjZyfsL3VrzPPdWvM891a8zz3RUPd2QOHPAZtefkFF2N0CMnk707N24k7WwpkFKhqFkwDWcbU9rONqe2ELXr+c/K9k7kmpZkREs+ua+wwKZBDONwRj2aZmdRKYhIltwUGrLk/T2s8wgkZgwvS13VmX6jqRTTcsYdws+Vgum9Lc9cSXMkXNz6aaSLjwNApauwYJoAXPG4N7T3dXNFVnG1PbBqln63Nx4MtRzbmDtQhSncM7O90FVnG1PKPqZvjNBK5opj1RvmlVnG1Pazjan2CEYiSxpbbJ+0via4hbuO8gkd0FVnG1Pak+kVjqEfmzYjxkrMuknhYKrUrQMNcHEeUDhEKcpsX2jAkd0FVnG1Paz3DLOZ405NnO46ic1FJa2Ut3JJ99d1nG1PazjalcYdy97e2JC8v764KbkZIwKhfLLpUyW0+cLhYwcVEluB9psXQVWcbU9rONqfprSt0CFoNmGNGi8+uBKHQoohL3wzDDc6B+TSfKrN98Zbl6gfWcbU9rONqPoTnWfwcJ0j7FsjKbVuv8VWcbU9rONrbtVi22M30rI8q3aXTcLLhGKJrGiadOkQwGYyjC9s5Tq559rONqe1m8BNSrYOoO/dnqr0Cgib4ib9PR2argZteb2u7q5oqs467Uexoo+5ESQU8GQcnqp67DMg3OaAM6qDLRoH6zjanpwJItXduk8p2+IiIiF2BvoPK+dzbFyerCpEp7urm/xRQz3PM5b5ha40NtYDs7DtSfCigsqe1nG09oliWaxzgQtPEBI7oKSQeR3QUkz+yF5HYpMTrpGiWEcRRGTgpZ2SNsimY8KzSJaVNPd1aW9Z4bP3j5ljHbVS73YuWgexZkkWlpmDlnykjLLMfhM7AEAC0zYHltAfBMXOHdX9y7jUzoL5idkcM1feINcxruDQEIAuVLTzoaRrGWkObwUbcEtSpDJbqEMA6Awqe1J9I7x1gFe8ZESqdfTMSs35mcCS+sz2ylvzVU6QOgtd7kJbPY34MRdlf/6ZC8zonqVNus/LXDwGqdrBBQkwT78vP2VkU0W30D4FEuNnsfNstzTCPsEiTtvEFTSbH978JdM64QR5a9T/AG/aDSFu9Edd7G3BH3dZqI2MLbyH+sgufddD/Ztk+n8fbUXvNVNl5hjmYA6dIdE+CLtLo08yTqk1Cg7MdTrBxODXdNjAbtLKlK05bULAuoz8CE/iPVIMKRAPr5ifuknOXlXVqtGbix6s2qmi+/BpzFWS1sohWd5gpmVqTz1GOqceHLbMBpbm59NNJFzEOOdic1FDoULQDoWx/LgNBUG32Rf499YkTOJteMmO8AdePuVyUDyXGjxynOqEUx/RNSjxRLtP3S2y+ayXsljl7jZXaGQSnucp7ck0rzdpjmbnC2XUNFVm9HW4+iL0Pdz/Z3D1VnGfqDpVQl+l5wyR8vkf0LtqYsymPrj4h12SmYOP51aDHomhoqs42wXHlO5KbKntZxtTyXleoQPewFw0kzaZeaaSLm8eC+soP3P33r3W0dOaoKnCj0v/xg4C0cJ9AIH3jyymcbU9rONqQqchp51c0VWcbU9bUGQcnqpajuFLIlrd7FmUwjtsDHcKWRBAJZrnOmgUPYUl1sYVWKRJNBKCrKZxtT2s42pCcQCErmiqzjantZxtSvV4P7n38tcvEKQrNz7XqTCJ3dlQfo9rwsnwW/jtJwBmCCjLPHapFKpfHw/gGd/GNQ0VZTONqe1nG1KNapwAuoaKrONqe1nG1PXaPQ3JvLZln7OCi/GYvJyRQR/woY7m5cyXeF7pJHxU8EZmW6p7vRNDRVZxtT12cEBAVdavOszrpngGp9R6BnGmvL/OA90FMemgu9FCyhcczxB77PcPwiEd7oKrONqesHuBwFHIT25JPkY/rrOJwFp/j0PzJiU4p3kEZi0JYb3fobOBZEn6/+wuZhPJxNpIAZuIKhw7FTd4PlvAIBwElyVCqic7n922EWWPPU1ZxtT2s42wbfATM9Z+2kbYLyRn1x0/WgmmEVoDKyqA3QTTCK0BdX9AboJewo/hQXaq8wP9O4TPBuHm7VPd1c0VWcbU9rONqe1nG1PazjantZxtT2s42p7WcbU9rONqe1nG1PLmej1AzOn6MbINvnzmmUQ3n1Q9gkM3sx/z2BIpQb11eky0S3achUA4Ap1rBDSwB+VaBbcv3As7cibNq8T+5ip83ap7urmiqzjantZxtT2s42p7WcbU9rONqe1nG1PazjantZxtT2s42p5bvGTaxCt3tV7vzuI0MHMGPNpmDmDHm0zBzBjzaZg5gx5tMwcwY82mYOYMebTMHMGPNpmDmDHm0zBzBjv02xrYnu4tQAAP7C0bopvEPc3GbvxPwRMj4jZEFtEXnWtZgyNiHYRvG9Y/cPGID6efWY27UmS6WmMGGsIXvXsKZ4OXQOJ75oonT4hyqHCzFyIcogsYyh8nL55FErvdmvg3ZumR8z44LbXwN0cm4G1bhuA76tpiV1z/5DTR9Arg4NuZYcN787/2pXZ8oCnVoLYiRJLF3izRHl9BR10angF+33MzUZi9CdxRnAdONMgr/a4NXLwIk/yDmtf7O/wWKLqtO6hnIZ6R5aR6R5cZGDqnQ0oEYEaSNeuwsd5raTyx4xDzVSvyykfRzvMxw0LR8wxTwBhlKWoe5U62T+pi+AXY2MvCxoD8H9MjkWL4pFlp2H1WHOd2+RffpkWw6UPiVtI1AdmPv6gXvIm3Rt8qluvDVl3bkZ+WWPHCwTNVX9ibPOmVtUQ4CH7ndKChoYVv1/Q362QBdUJ6GBPIzDQfqpsMiBX0rd57rsnRU8sFln8jXGP5B06U0x7Kb5Iekws0I6DNuYO4I+Unk+qK03DJaRikA/1HNj6CsF08v0YzQkwCYr2rPOXAFTTgxMAI4YSUCiHRM7d5fVlkdLtcu/yY6ESE8/qFtssUz5xCWOVk0GVw6qS8t3Pj6sx1Pina+TpCaSJTNOY4tqIkaEvdrC5gPmHK7yPlhLNHICLo7PqeMi+/CdJYRdXx11K88gqAkwvvyKLWXN/3ZM0POlsvSTSkTTzMptbgGIlHWUWL/5VpTqVATbvOeOeziFwmnI5WlezTpHEmnTA+logw7xiYQe2Ad3qk3aIlejqsZH4+c0behAts9nKzgx978GNI2I/QVvTZDcZgIXgZXIcF+B60mV5oZz+mZkEmIV1w8Z/QsI24uNbUXPXrv97fIXh+bsXacxzFn5Yd6eH/5BJYvMbfzBf/Fkm+jauZQP+nP2LoZCX+ehIeTr123ASiBhOeTr2/N2mGJFElQhVJZX0vjdzcn729pVKXP+1gVT5BBZj+yxadWIWd8XSUxdCgiYMgql+lPjbr410SiowG0mAYOsZ94b2/+gRkbEGR6FKRYjjjtsCkdAypWGPF2EzXwQ6+/HLhDRu+C/ACiBFWGxtiwaDQsc5kO1CuGEAlMilskiHebOhcTC2h0GOTzhtIJWYNBqhI6zFPtv38LR8KUplnR0Wj7oVf7aSgHy3Jm/RN85bzPM3TKI98ptf69iL/vaeREqmhsTmSocjB7vGuzb/pnDdRgL1Yog+kKW+ZOfxsH6GpuMjFOTrZ1d9KGBfbya6MLmtE/iHVpu2Ncb3UClDZ5b+phDCi9r7DECXso6iYxUL3cetDomJX3x+ijQFkgu52rnw+RqiVedE5Qjyz59nQYm400Eoazkmqm00SjnfGXoRyz+2M31Txk6DoTMuxGW5+PsAj+omN8KnJceY7VX7l9bhhCoazmdtPhZR5Amn+MKjIX/6oIiGuZMRmHTQX4TTu+AhU4ePxrnTSVGhiD1MGfoJjVwnTrHaaCFKppWyCr2kYtnx8ELX9z/q4t51sFbw85TZQbOGshY5UFDTZ7SDRZmTKisNcb3WpSS/NN/nJYh6GlUhR8D85dT5W/40TNln91EVnmcexJRPS+TjSqOsc40Er3rpcgZayKv4oJo2/GfsEEux61DvoHnI8DeR4ZK8PheNSZ6hOgI6tqBhpfW36vIZ4zQOQeHUPYGe76b3ygxoZPpVlkuqx5Jhb9GmURBllf5syVRLYbRdiUIAKcezCQUl4+dZv0L8x6vwMCaS9+vavjw46ASOGie+n8awbG+yv6VthDWuPvY65bZIPSMP8uC5Z2/1WOq3aAOuHrygX9qxlzGdXM2WLqcQfEvWMAvWSfd1h20HYM0ejXNZQD0Oc4NAnC7BYMjOzGRNd7xR0AJBYsy4zEm3Vp7BDXQ+YXQpsn4vmJk/NJwZB+a7hN+R+uTIGWawjcqDZmBClMfz00qGZ+KJligIcQbFXFQMfqYoRR2grmCMtJPAz98h2jICvhINWjBnUOkVIJHSsuZXuqXDQwH0qU/RB539OFRLV56nlfelZzl/jhhgSt/BsT7ppVSZMD4ofr8PISq94DrJOt3xhP6uiyNLli/uAURx65jfbKQDr6HihL8mrTGzLaDYYr31xXoYZ27IpzRLzmC9zt46uU7auoB1/vnJaTA4xLRl0EKC4/H8QwCMA3gJfJSh7eY3APq1Sx+soTehTITraNRzuymIqviXta0tlwv9iHZgo/y7QcifRx6V1prAU6bOfCoxFZxHNVBPYPqcGzkWXPB6R7Zg6+kUT/PpgnhQMOXjQkIkp9Qfm9G4LErzw7lvzv4O/4/TUznS8XopsyCdSoq56sHAY3Mzkx59mAZsdoe9WIzucdey3HKN1EIJVaROBjZ1mq0rYyeFlSwc94c29UQGq+gZE3GRD5LZjXcXUCcbPmzWGvNCpmHSeeR1ktZGwoqb309NQ7nbqgerJbjy+76UucyAVXcxxMuwrsAjj82N9r+IU20+neJ0MyEuEuEFiipgMMogtyom6VClmiyF4fDoZWIVHP0pH6WbAe2bNVZ3UA4ER96ONHsbb5LzxovsCzD+QhEo1/kHUSU/buRjbsCcP7H4Riti7bFjQ4PiozHF5zi9cMGJ93qWriSkArlFTbXEnZ0PWzYqytnAOchzld+zUTKL8bU/WiM2mdM3wGlhL5CYR9aRiCYEg6dUhkQ4+T40MoMbF64nvEQanjCjQAmLIZpoJYBp0rR2azZmZ+brk4R/84CoMQIVoh6sBpGpjsNjtjK2yiLaV75G4T+EN4VdofvQ9BsTjmQEQ9x89w2WnvZ7gIMB5BY8GEcOTcX3gS21iTvbTdNvA9Gds4VZpNZAzDjXpnLlnqd47X4OGDntveTi285CvoLqP5cND/JQEJg6DwOhwRXQrNO8vuPn65zJgMK0yWdocPEmaJR/5jdXVf/EjqABxmnwfBadKAIOTCbN5Krk1ZDifawd6Xj+k4Yln9FdtpylBB9x8MUIHaDej6AOy3EscdvJMDPM2keOHwTJa7fCeb75ftsjzzZcI4mFnJj3eH9LPX61sxA53xaJgCHRFsYWXo76seLH0mT9kVHvRYpPXdtcCPxFH48NGzths3vDLw1wQgENVqTuqXogw962hCiQ3t6MqLdMImUYVbNDajYxdMlbnj1ukQ9UqJJSor6qJHmEkh3j/fJgE7U2ks7doR6P5irXlVQ7rIRrnemUhcPf0OiclBrlvUySs69QDFSwvIN/bBAPRbTeylTEFfVOi+/QHMhDK0Osu+PZBRqzKZ/g1e6HRGRtE+EkqIMHmNWUTrjb7NzDcHaNyu8t/ae8KJl6bL1hTOruH2lprnGtRyySp48Zv0LdIFduzWiEgh/HiAbh9EGL1btDiWcBO0pTtNOWFBUSw3j7mrgaJiOsjrIRpKEvgGsAQv5DmOigWr2XIlDBKuaztrtDi+RNitWRezcIpjXlOoSn34aAS00uyN/HF/fTDLeYjooVG5q8DFK2i1iTli/tOStCLcOUri/sURPjZ42eWKxgvbBjZPS0AdtEW3y8aRtje7wiY5t2NNCAP8Omd0JWzt/Brl72ScSLxpgykF75fGyOeqBVkIFWEdDQJn0+tzh6F/eJ2A2tqwLUnd5cc2mWKz2ZANuYeBLP7z6TKQVDt2vZO4ooUqWMcE2CV+IE8cf/HP8PaFh6ykg3v00Ih6dHrbNNiOShpNgbEemSWPJkej8Zp6AxQr7t1bAs2Yeln8y7nTevZBo0dE8btRKghCwWwZYaqAIUhJzsOoL/3D5xlGOENMB+yArOIlCplI3xBs26nT9RtJhDjSOSaAoOyDrZ0xspL7uIXlSXbi/pByx0nwygkpvtRBAdtdOhmokm6YNx9GnaELAN4xEGMQFW4yf6bIBjkMi8S3xMEvygho6MwEH+DPIOHHZsodbEQPiZ5+WdQ6xR3g9urNIlWe81DBhconHyojasZfVB4WYr3XE0fBwbuTlGtjNp0z0RwM87+4pOm38KpgDVc9PFcUL/W4urwyMzVY/jzKorDbOSb28Glmso92Ve9qAbLUbt2qf/TGmL2ChDdY5u4B20GbESStH3sUBz9/JY27Wmdi50xQDI/j07mSOSGvJsHba5o+GBMkd3NlkXb4mUQNNNbDPwV9piy27V5W5WO2+jF2KqMr4TPXdDQ/an0oc0qGRhLErlTHImd5fpVZK8dZzTCZPst/yeEWEAnsP7z/YdgveI9rnq8iMCHeJ5fF1mYF34zDEPAvsvaR3b/7uXDVvHMqnDJPatwwZptKn2Wa/gkN+CwGeQn5MguKHtOWPlTBBKK+Hvm8hCbCOE856lFXpab/FmpB2pp2Rt09XoMhNli0bh3E8vzBz24QK8OQivcVvGv8EfFqTecuiFNbhZC69Q2XQ5xwUgVveNDB84l5WmRr6rUVK3my5ZyDPwmRtv79mySYs1iRQJ8Bg/xu+WndRqsUoShjMoa8pmKnyTcvQctxCzFv3OiYlvE9BFaTo4EzpJiWqydAuTey7RnIdhdMQjdpLCBTmywzxsaTwggsc/2N/Yn0ok7A4CCqHbOuqsUx1C7FrahCMn1kk5iTEQYxAKwTn3A1P8+mCeEnSdrH1JDtQiNZAWZRs9OGkd2GMToVTW7a8ZSM1efz19BZLT3vCETBbn4n6Ys3okmf+BrNmx6MDJiK+UY1xeFohuGMwzZCk7clk1lLR/8w+uc0qhpC2Y3sZfW5lEpfnUj3E9SYMRcrP1xfKjNA20ElzCLlmGzT2+irQkosMBHIql2FD4GLuHKl9VercstPPRzzs4hOsjfPJShnnMEfPfAPz8kYMB+kkvIU7A+3K9UA+CwypJYtz5Rc1AYKPuUP5dTDuSACqNrd8SqTx8qEbMKSYMylHgTqAi9g2WRCalchvBN/bBEp+JLPmSPOhPU3Rj7hMdBvTDR/kZYV4Tb0LSHWRKwRATpEIcELCdQlafGXI824+vZHRdXeH8GH6W1HItyKjAZLI3jncI4GX8Gihg5kxCMlfXzR0EAd9ikFe7uIIxVu8A247SoIIAxdpz03HzRYzFqMP3tnn/wCBIyRq040ghhFHsnymdnLEfa3rSOyC7VBIp7mu4SHW6rbKJycuCoMt98DrpNytPxC5Ng4UZu8DS8yntrEMBIawHw1Bg6Ij+aTDwf8O5akRvvyPcGdi+QnHFoIzMuGYAiqUwaVqjYq3QIexDzz9IBPEAWeUFUjhM62nvBbGCLmPhIlwZXUBDZgsbLgqxfJe0zIsyZGT2ljyuWnrQKi9x6lSzzCx3iygAq+zWLA7ruq2Dqcn0u7ApeiM3j+/3SNcCgNq8VK0swzVnm/Tk0Dukz/DQOKHFSrEgQ2OfHNNi3P4ifrP06QIt/ADpP/sQ73HSnliVHA4cEDn51OsIm/ehjUVbJZXO0xU9pdm6or2jTri13Tz+A+qqxQgXyy6yDb+E5PtMg3kFoSN0rbzDWJ4BsuBTNbCTMoqKsgnTcLMdLplfJqltd5nNVUD6pkBZKPxIEzZSJmAiJn2J+V5eVk/LoYRjsbdvXgdwHGKMG53EsUqFlSoeasGGRLnXvS5XTMjfN/6bY0EFdAGH6vrR/BXtCYu6HI9AflBvr8TOCieXDjbY09Y+O3/INgegr5f8N0yJBlkVXTyGv+iRLySfr0KW4Hmxz4CyAEJXjgkteCFQU3ZfB6ePmeNoRdBRVmtatXttmlKyT6FF7qs9VrDPmTlPY/oYVSqGNwkI7Fz8aUyK9xWnGcyyO7JQ6DMYNAAL4pw/FtWkKRFcgKklRBW6I8+d/wVB0esWM+TgOIQht8dE9+PPDzr2dc/HjTTk/v7BFDS+m5jK9Br7zt41U8c3o8dITvGkpoAz3ek/3irSqcSRMpqsPDR9GgrwnpOKG16WgINN+YHTu+t0oq/R89+H/wjcg9RPCbjuVAJiC95Im1I9BqRiPs2jJJ07VignOYJPZl1d8E/x3DPEg1dbIbzHQmEa+ageQI/DU/ArXayv7unYxmzIkSVXX9J0H51I2pvtzuWhgdvG8BtVIbl0kqiP/EnGYENVtOuBkN7xIuik6lCRQ/FocTjtMSZc46uAdtUDFe4i/xhaGRVonhlSPg3YeBmSopTw5vdQ5gfXGa2zTmPkVLoZFtg5h1P3/qrbBzDkucd8rzah4IsbXeMMKK4Wv73Onf9CGOw9Sv0gBjtu5NDXHBs0jX5Y2u5pScHsjoeM+N991polg18gvhsklxdmfp3hkumDefxzl7DEDzDN4CSeQFoe4ZYKABy4+am/F3Z8zmGFmHQmK3cY+6OYa+jtnTXT6ETcKwZfW9wL7uApDb6RvkXoVwh8hJRw5tomc3wlcThDHu5RyIOfJjIJrnOYPjzo+B0KW+bR0gs5Iiy5DlaAxGvXJCpl4Xm5QsCdhwt18GOwIg8Yq8CTEw55H1f9HjhG/fkXV0Rz6fjzz5y7XjCyYRJ5xxdW64uVe61nT9fOB9xv2pfKRdgVKDe1wPsP9uPshc5QBtu//svNbPBwDRzO8IhMFcf+50KTnaQk9QMn4JSY5skCxc5eEHHc3jogmSKBNmRu6ovzRYLvUVqEWA26Kwk6Fnx98j5CAGVtKUzlMLRh07gMMBUg6TPVB/AOuq/WM+IWH8gujOpCI8SronH2MBQXZJ0Thd0D4feVoMBnkAX7AGBsr4wCSVnvQYUyksqaIFFGi846VNxSyK8bMnRmcbduHlZREg7Q71euUV+SEcmxDVEBKkn6rp0BOk9xpq46tXmgaHDCraEFBUKHPj6GTdoQ+zYAuO9TxwiyvhnNJjPJcIzr5bD9FGlm3z+MXtkrmjG97cB/POMZe+X6Eko+C9hDZxVZsYGPMaOj+lnwP1p5AQ2Lp8s9Plo4dZ7A5THU2TDWV4RHlYDR3AEe7PB1XvM7PbDFUPpF1VBCwfiLqqB9wPIia1EXVGcF1ZbepSQxMOvRSJ9ExCZ521toutLzb3XAL19dsJ4BevsxL6CFMySUwBldAYFs65PcQhO8yfWFOMEMz3Axb2s6oJhQ+QPLxgzny9O6dZrHynd9vOBqzquUn0sFNBJqgM15js8qjgVMQiaaxoMIli9UmhD1tsWQWeVBAeGikcYcdJ8nytjm6qH+pxJSl8RJTxEhUCQ1wg1eLyQyOtQyY/1woZ3pu1Yo+NEdiyc/VWFeKfTzV7ohdBPsV03esQGkvxqpoV4wDglNMYBVd9HEzMZV1uoxnZycpxtvcePlRbY7er2AhJb//10P1757c3gv8Xkovp5uRji+Nt6jhFc2F5dBbC3/c0XaE1k72rio19hbkAkTo2werSAMyHb65Y2+TxGmnff84tO+gOVnyxtOgzTlgagOPXyhuKSOZY6WcFdYuUp1jihjiwaoBepTN5X/rXI/mv/+oj8gv7TsNsTrPaO/ZGGyDkjAtlRkAsMERv8gRz390BY1COUuN3F7udXiX++i5ztLi6InXOR4qQ/9IXID0xr5yHAFMbBx7bl9+zgWtuBHreKtMsypkppok2GfzdripdDDdfnlovMj6CZfsuKhWfYgq1Ou+1e2Pr7p+HG+8zpsUENdmGKZ0CrTHY9qDX4ZiN7N1KREA0ItcInaD1Idikl+4IVn4jfODAqOoCFe50c64sqrJvrIlwQyHoJ0GO2H/7p1Zr6w42/hPuSs76Nl/ItE/kuDXKfEj773VXz8f/bZe2JCSKl1SVK6eJupwivBXeHQGQVFIpeg4n/9K8dklPSrLnklSwdEZCMsRgt79T7ByA5pEtuzV06p5ljSGBX6v0YrEqteHK34lMtP4aORVeggOqko9PYgxue3T092u5p6fpt3ZGhkxcaLMlpYdJPZ/7D05YPU7G48YaN9WX2q0JQQ7sD9D7dXsnGoLQ3lOPNAXTf5Qqva1k6dEBL4ULnp38YbqUYfihE2g2EK4BXJZw2yWiJTcJgUzr0z186jdwxC5WMjvXPVLDlcsfYwKQfFszovZOBpWFUrOkGj/F2kgtR9utslILJumN9GAKSz6HqwU+q/2+dGaNMSy0BBXVtbEJ7tr66n+TjlImxe62/fapW1TfG492T0597j4ptzVuhux0b3hqs2ODIohvryG9obEwp77/0rEqBi0Bp6RBhgUHhxYK4sFfV4ZtuTidRH9/gB7tA536i6vd99YzXITTIcwLUjGwHodRn3rs9z/aPaDZQ4tdZCILtbe9Hr5hfd1QCpg17l2RkNgg4sHz8wG/Oj+E10bDX4duUO9POMD9TTj6zpwzgSxT6gcZiyqG7egHkfd5VArZHHefn9nnDkN02/jDK2qzDQyJ++HWFhxOU8RO2fMHIidsGu/R7ZomL+WkDd6sLLzJ6FCGaytYJ3+zUeC3/4Tfl2QRsdxhkdLtjwY9rqRkQ01kWYgG8DeL2U/eed1YZfdl1cVjcfN3lhL7FELvB4vDcGrKa4Y6gmgZ+Ez+vf6pZZw+Xh0AHNL1dnAS8BFeP+YsB6o60YySj/H7egCq/XT8K48tRFWaIbUhTeXcSWW1EZczDTHS4IwOoLnwwzm0W1Lx7aM3X80SPdfpY0aBzvxBwjjTGlulXhr+wQGEB/x2N0L4xOnup7oil7c/DX7ZWU0kbq/Mcw6JJUQA85FLfyx7nlqT3lsJJvL751DskGfe2TK1xuY2HOxZGID2eFMfy/FJT6Y/I7qf3IuPCMokMcmCvOVqS+6rfN4qaOhdbqCtuFjBHEPl3zIM7Vbv/y/hFVdkhA1kcLnZcldaT/U+D7ky3IsTGsLR2cROp9RAqxIAg55B2O/812m6Vn6Z3Wa3lZJSjcTxhG6AjrZQwbEu+MopKPtDwohefgd/SPD/n2L8Bf9rDXv0yvjWjCCCcruc7JpE3UMNWP78KKMJpZCisBRCv9qlebbqPXhK5QSZj0T5T5Xp/jB2J4wP5fAeJKY0kaBMW9got83exzvl7z0G01yCzC6Mx/EMVISTVqwWWpk/6wxjFK8La5eVxGcPR/NUjciIV4WBryKlvGTLW4rq0/805h5AhP586s1KWCiqRxH+/KqdQpPJJ9cuRFXwpZy9fPmmaS26Eif7sqfiobvjSmNRbWb5//voJgUHnQR7Dq4PoMekRE5/4/0PawhSKdqxRLj/vGsUeh+8qwmZZsSv5EXgBl6mKp04Dr3sVG2Qbh29xCfU5Ll6nd7+wBL7RsxS0rRZRdJfBQUl+MLr26o33nuKpZTC/BlJvRwcLfUb0wDxWMVmD/t2dCgHdEd1ugSsj6nM6az3NjzkJFq/gN6GpVhuRLv3NEP89plzvuvH0lLfFy1U88J+JuR8gY6n2UgWVJc9u5mhYKpVeOuCViFJnyykgKPu/HlnIN3AWcb4J7NVNKTyNIFjDkKy1/IouamBI6oUFMrEUOqCrFn9o5cbOfH0XwaKO/5eQ0cSOj//EbJ0xffMRGJF4oqBRJG+5pnRV/lcw1juaF01U06PQ9vo4EmyIHI+bYPmCK+AV4LarSlRt7DSJeko+b2r0p8WH2I0CNN2n5YSkQPZPWVIwYvoayogoueJjvopym0S1ijdXDFXVh0+oG+rL4YrIxBL+8aszc0TPPQsKjLjjM+rws5AGR8kDew3NqM/AmHlW8Cj4pSDGIyELvqdseXU65u85VdfmogC+jiDsNYjaSMQWFDe73MB414Jnv77YmhXCBqulbz4ApsUcBRotx0ZnTmTnGyz4TzgI2vBHfUUOiuq96AdgtsrcqTKHeaaVL9hzEjhGj7nAKjxMdRO1OVzDB1GB3nk9YU4cy5xmjWV4N8KSzcO3u369s9I0RTg7kLkXXqGJL5aVIdBNquKVM8alx01g1BCQEe2vxAaomuVV3tpvNgJebJtVA0K8R1w3J0FHNc7N2OhHY7V5u0KZ2E1+O3nSpLOzymkh85+3bsrZUideA1/jPzj4IxA4JN8FnbSwsXRL0GTVlJm5nyvTc69V3Km3O92sY2W3atG18kl13Ikr/JM2ZFpWkLRk2ZlVZrGO3bjxTVFoy8XHn2yTkPFSgrLIInqkEN7EP1z0UOA5byGy/t5Q2IzWEc07IQJnj4caUOLJ/CBkdhkq884Ry6KVlNMmu3KKxLalsJ4L6H/LIFpH3PSD+QHnt6cIGsKtIPenHNSFi6e0SM5Wfg3yU8qwdcIGhntfvqcDiN9SEUhEE8QVzHRfOTItFB/6boKuHqjCcliVD8ffGQMfFZuGn7tEUnldIfgFx2zdnc+MfQ9mVyLacImYS1/r1+y0f/gH7/NAVUpl10JeqdCY/ymnX86qvlc2DAAibcxUOypiNlsHBhJ8R8ScwGNEszcNCOxVhpm2BONVjSt/wPp97uMfFT1ZwYKhvRXr05Af+3GdyogeUhz0cooEVA1vATtn82/KsB1eFEyp/sNP3620mKCUe0bV4Lp/QqPBaGbIPdI/IP6SkjJGlL8eL1imsI0n6DFE1NpGCT0kPOZZmy7NsotzMmDqe4J122TRHsaLBteVwATHpiYcyIGbBWIJ8m87jiOzPDW/rh4RD6soTqf2rHSa1Z2ecJ1Ez7WZPSdJUqA+Rh/fidrqDSD4PmVczKvMdc7B7+wzUziqPccjsof8T/LxzfyBtZqhYapr0ftrWMDKefxIpCe/baRFSCmLjdbYXWr4WFWvnEC8kg97kl/Ia97ivhdXqOX+9Rz2yKBBTB0si73OojH1OIR9P3QI6591ckrpN55GlM9ijl0dc3OyTBwPuDqG4SFlTkA5Efc05pOJWRzPKroWTKxLoMiMw+WAvR87GrtT4jO//R8Z+2pLNfLuv2vWi14lVCALFfJWr7awU91cFBIqlb6hod/au/HVf5NeWJZTrWLO2+HscBIp09pNLYCQzobh3GgM4BPVzrNLHaoqdFMOauCvTPjcLJlLMf2YukUATEVFsOijUjcd1EGh/V2jF3vEc7UwDl94KQGaL8hNhFOk0iI3nEmviEqnRdDCHC4v34mlmOWYhdK5Wpj/7BSeWv2kfE0595VE5cupKR4lCTQy8VbauNWyI+3U2m1GFiJI4tkWSn8Qi6JorMpX7NdESUBz2nLR0OM2ubWEIgJwEKr+tkiKfp0y7qRqqCQttWXboVeTIT2myi5+8eWEi1xmZ0AfX9yU+APXQ3N6XNk3TvzYt8JSidVv0FgaYHu0ID4rfjpiKMuRi8IYlGlBTylarqxSOi5W4nQmX+DGEueOOFfMHzJgjM9KuOSLcAJfbJXoGYxPPu+VTBJ57zPgTblws/gpbmX0J+kdRApqomUe7sPhd16/JQBEeqTaTyrEzKqeAxmuMN/Ar/7eqB2U7tugt4RSCeFB/L2VtD3U7ZkEgZuvB2hqTjij576I9KurRtv5bDVup5IibR9o8PilMlvDcVh055q65D+LrsWb64RCY3wczxws4DfdGa/2Zxm1gJtZApS5FdOgXU5km10NnQVLksJ5Wy/DDkdpqmg0pJQPyCGo2X6XkBVKQU28QgH7Xi8AweBiwum3XeDVwXiNimtBe9PywQxnkDWyR7+EfWoP/CgIK5jP5sx2949qfVrq+ITg44GyY0uGZoy+Xy+g0Gg0EAK3/a3jNzGdsTMVThQU9l78LqLDDQNi4cKXgvL3Gr7D2xAcI1MW+RiJHOOHLeJCtcCw7qB2WECPF/AqXqvl5VhEhci2I80Y8R5jZGREFW24qTqSm0riiZ24fhE/k7HLDA09N4N89i3GJjm9M+BG0X2jF8mwoaqK1USqFcrpqIQP+U13mQXQcQNqbMkXHYyqkcC7AGshPdI7QW6+RKgNa3LmGaX7zlQ7Dx/TDf9xbOE65IRGwBsQmraEA1ukRl8t2rwHHvYAjqFDswLb/Ko0IoRX2n/T2EZbQ9G7G2gdS0/eEDt6WeoJYMDtBZ7sMYLefyhgnnojc2bK+px27Rms5d08gXUICHV0WJkk8vuI/16M9LrONv47YfbuNw99d504IHs3x1yQ/YgsSN7KfVfx2xk9FMpJWsYydB1LBGTZNX+n4cImQSxFGGx8rk1AtNeXfPPjbwh4gUdEk88jAzFPm3yc3w8yCC9aP4kiJVko7TEZFaf2PadHdBwxBV5jRcm/8iYzyIcM4zpMeeukD72zz6VImgk+X4yxlLHaJf+XtvmLHiT493DcjJxACtePSzMGAq2ACTcNEiP81X4+v9B+TSmzmahclNcFQrPky44m8t1/7JG7Hk2nKjv1vbIPMqqBMaHEGzOhwRU+GVszobz87CMo+TTIMaI696K7R8xjExmX8bZvopLbreZ7P9ZG29U1EtX2p3fMYWAAE47a9/GwEzLG7dISSEL1oxiL06ZckeuJB1+tT+Yu4qpvLJo2K962pZbW0XYjOnt5nL6WF0USh4uXjgsdBdUdCpm56P6IMkXz2lrneUJXW+MzvnDe+sT1TYESP7hYs8ZjFiXL76ffWVW+H65P1/4eJjbq7OsZ71lNTpz4OVGrjoJ84P97lpLvypiIqYkrQMIA6i9ZlzKb/tR2tEqeM0WbodmwP6Xzy++YSMi8QECLA1dgt74O3wfsPe9vYuB5Ci3z4B+yTUcQnEK/Opas+TY+RjyFA6/1d2g6/1i528mx8BCOfybHwn7jybHwOekcrLzaSNREafzhibEDzcqOj/0Yj/jghgherEmmQiXUBtf/GJ1VgpO61f+eEl+u3haLAy9TW1vsyI+/sSz/ot91yGADOPZQFm51ZFjbbhrqMuwkjmkR9nTCxxYFbT9j9eSNCv/vrWD/761g/++tkb35780/FgB3upy9PtPqangILeZXS7ag12a1vnLzj/AUS+MI15d2565LP0aSQy0h8mRPwewsrSngFt1/4MGGO4hcI+n4jD5xQJ538HdYWYS/vnxGzgOqkCFvzscu29cmvh0XWfWBNJHFt9aJ73f5xSLDjctA/jotJ9rWeZkkgNNvtxI/4lUljWSdqa0YjkPUy0uT9N8J1UrWMcGbDs0FBoUyJJYIj4EPVs7MKhFeKXlKhBOQpl1tBG8NneW01EOBa3E7vkndvn+oJX84puz4uuN/8sAK+VeTQSJwI8u1Gm8nLP53yVAcDD7BeIfVZHnHK6j/4Ir4Yh+Z5YwNB235GUEE2OWr0UMDNeB5VFNPiQrniQjvhY5X/CfQj/5CajP8dvUPvgd08JWem+vvjlq2hp3jRyPA1XXuJNlg8rZmXpdJxomdBf7Hk/RGFLt1mRlxyH/PXpOnQhm8c/om7MTgSAK11nn2n5wnPcfI7mghVKcdraN6Jdt4dRpERYp6mqVol1PqtqDMK1fDOP/5y2Nq+Sh3LXtzE/4jR6FA2Gk0yl9KwRriEuPdRw/hG09wDSQHivQly5Egtwmk0R57rTxAER2aE36lJqeLB+xzOVaX7KkOsdfekrvlWl2v1wuVaYEE5pbeiakScY9qei1fwV3LsNuioTg4HovImlXpNjbBQRi/7HTSCOQNN8L7H2Y7czVqrZf5mw+wEnNzC8kSSv+BcmoiqH8b9OQoZSbK5mwjgq1dwrK627mKRkpW/z3S51JXbnvFmAfQ5OEEug+hfxLiDdQ0xbtf2IfI4Wf38MskVwaB5XeoCtZvRrNUjjcJ48ZH53XRcj3zYtqllD2ze6IXfnPB8hMJVuqpXNZOLLLLIo49QqCdMLgouSogKx3rUCeIlapyU1h7NIiR6kSRhDbRSGC68uXRVSZSm7Q9n3yPX+Xxsf4hzgc2O3ckMdByC/81DgXhKU92DJUVCx/fOHtd5fJTj7MNvAeVDg04Ntyaa+KOPOPiXsnbqK/Qz+EeR3OTS34z5s8L7Sdpq5WnOdinGkVrBmWfj0iYK+mxtuiPaguzr8priZ9MvhrEP1f0jGbUYWPBgUYQ0PK4+koqU0KsOmxVf5SBhUGC9p2oi0AgR6P225LnAws9RbUcys72wW5uy/0Ms2TvQqkoUY5x42PjLZFc9hA1aWJqTa4zScuKDDmTLYg9//EQ1W+iMkIqlO0NtOUbvyHBMl+gp6PMcujTHe/e7h2DPW/OCwlLSzwbSOPRHj0frcJCh2I83okcJDneqJ196kEWcpNTPVPDD8m2r4o/im+t4VHCiZFKuPLwGGeHYKduU2ZszKSuIXX/844lAyJ1mcW5GqBd7lEdIUvji/9B18K4xvOX7nv39Q3VPmujHg8uk1D0cioVCnfI8n5fIbkF6x8wLupPHavDD9UGSFhq13lUbLLQQ4MrS+eb9tWMf22HM9KfaOc+mgFBwtsObAjp4aB3Xaa8NIVj9xmLDVuN5szb0ZTBG8rTZcE+qS+LIVP3O8TdwQ8j6mc6lUbax52gZej6AlijOBwkfD8m5f1TnlnUwIehVxC0JUqMet8lm1NzQCMzSCkKp9PIq2DPFQkvvo6xgimxRSYe2GPN7qHkQf4/wYyqsGfwNwaviLYg8YSzDbe7EdYywHmOiliEUkG9bdLP2UXM79pkGztmyaHfQHJJs7IlD3/zqIChFFJCJesyHwaJ/PEmgybovvB/3n1i3hcjUakeP2Ognzg+c1RL63lDgjaYQz0vyGfws9iZdWocNj1mFMuOEN4fCInMRbernRwkZF+Fn79vDYN788Bs3RvipgyAIjxlr9muUR1y6JfCqPX09pWrX8vO0t2277EYCRf2Q8JzASL+yHjfYBra5LovRCIylzrqSv6Roc6lce30Jwi5frxnhikXPJU/yK/xXZdZyVeKV2xk/th8tQOYqnYJNxtZOslxQKHnTdi3KQmMvJP+X72G0UzNSmfRkrLW4WNHqoZ0Pel+6F47GUqmwG1BdSAdXH84YzVYNfwDRybpC2lTldXwZ7kZruNUaqL8eA4a69IWk6XHWPn5+DOLJPWCwkYhvV3bZPBPu7jDr3YrWEhhhdz78vuxexoqcWXY9JQw3H6nLBGKy+Og5twp3iDVZGj3/yVT8Z3qLm0DJ4CRf2QtVKLBbX7IVNXIO3+yFTVyDt/shFUXYe1CbHkv/KS0GGPBYqtwseUpQM67f80l3dZyKN0Ga2NsKv2cAl66K+b/OMsqvh5OGE1sbt1OQdRSe5gdj/MkHtk8g7tL4ZKskdTAMOtfE8sje31v84jxWtCoOQKr6o1oiAqZqyBa+TP5BFOp+S6mMDDypBWDQuV1rdOz+TQdUPEIw3WxZABXy0Tqbmo1TbSWpG6Q2NW4eDnGcPdw3Z5qv1qInZ+26fWdB2kLbz/IbMHC6898YweffpAuk4T+YAtJ0ZGqo8k5hnVkD38cNG9IJre5fLCUoF/o7I34iDmxXaELGxav+IS819EVaYeaFPIhTMAuGxDJ67iqTeZjCCnlzo7hOQBsex82ZnGhmgwTVl4h+l8K8CKKY6h/yaOh1fzOA7Bp9+kfEjIiRmomZO16DAmFqmNUGDO6MCAx5+6I60vIaCinFxo+uyTN405IJlROQM5FkN1nBiTeLU/XHr4JuOxpnTbOPtgejg/c9EC5dvpTB9kX8GVvcXu0gBblE/FPjXqL45t+Y7CDJ39912x0Nsk0RCmiQUSI+VOK2HIiJ+zDgAW5vdP7XnPjPXSq/b7mBHcGPnHGbszRR662+3g/e5IU3gmC+DuuMh2CW3QXSTGWZIFflJJAIZ0tOhDZ9qOGsAgbPNGPbkATimv7qW+IJx0kfrf62f3v5bJteB7Dv7LDWoQnoaf53aMTiAnQ6WJKUrHE7fdQ9Vns6JcQM4hjjnicQcQFEpeCsC+0uQMfch8QEJOl4QPqO5CAcqROP2cdCEbtKG3M+LmrO30Kkuvq5H3k1seTy4LlSHiPH/u6Pd5lfVDa/6Gsk+0hwbBbbIjG1eJblY61lSd9yf00ofhux6J6Yh5f7Yilsq0JBQ/x6oucU7kNCZsmMM7ILfXRWY/5tjleCNQQHnl+Cw/JqU7S8aNR2L/1XC58lv8wypAOnHW9ZT28eZFeL281mKnQaB4t4aUfzc/1T0yjF79sRK6EURwAG0MSQey2TXY6n9Nxm78RIpNWb4SGTWF8AzLPYf/TXUez9xXPJsbInHpYXfosjz0wjrEfLpPxIBKfEv0F5nwx6aWrKOUOQLwIXLMpHqn9V0EC1yYpy9Awfi2469kSug6Dd6NpCYsGvG2fwMcj/K6H+ixckUAB/ArUpK58/cEl+hUwUIeh4Gh+DjV3LBsjJTsPeCGogwMEAaiCjW01TkG84Ig8QCPABvDB0Aq1YTFlJe/QmoHghao9kVTBq42H5Vo/knZDKs6N7c6sRsqP7Cj5d4PKh+DvQPUDonkjwc8mlcFMfeNDW+rpifevlrrCOAgGApaPZOkoZ/A+LrjthfKE5iuPyZvmie4nnbP7Yrqea55K4h3yD+AMrZEphtEIDV3uK1MKh9QCDiyLdZMKRcgkSZOzHVMys0qz+fVJv/Tbsr8/mFrlEP8Vu8ZSDyYNEXL8VzV1x4qA2GktZ/3/8zOZMonUpy5XEBwVTZShytXuHmmhbtlhUosvpquzJn/B5O/+//R/Fy1xZVgVJdjcV/zWhRR3klva36oH4Hnr/HSM6yv54Plw6wiZjagvpleohw3C2HVVln+MP6gdGj9RLB4SzuunwnMjBuKlb8g3/DqqTfS1uQSOgiQLeFqEfHdfdL6AmPZSY9MrcwLzV6fwMGps37/Br5FOW26VpE1MdVRaFH0vD7Yeyz0UIwZOJSdmg49k/xTId1oJ8xAtVEBh8/Shb5s4Z3LT753p7UP1ihzo75H3s8Zwuyz1pNMR/8TEN+b8lpfQ+4S14LYMklC2tfu/5Xd9QP5JVRWy/pH6LkJUCXEr0TB87w+K9NCi7nuwlHqmDdmJ/ODgvEjGWuL7N0SpwifOP+RRSEr1GhKKJS96m43kPTqhA+dA2+B/MaBfVSbchoWdqS8AwcdfgxCXo1SMMTXc/Pe25jhe3puWk9/mh89CrMrnu4l4GybgnP/D1t94QA2qa/wn3y/2s4/bxu7oEaVhxn7iCAy+lZLZ+zxUbGH9hxcxEKWKcf8dhXIgTqqjl2Hjnk1ZzriHUwqA1bgD/yXfmEtxJwly5Znn3kqxG++XMr/AUgwPzX/7/9Mnb+3UJ7/uIWOhH1VLv1PAtQvQ3l7GUV6/COiph9lR7cdVt9JoBlTAv7xfqZZFd9Pb/S5BXtWSjYbWV5xejiaDgGdRbBffw83WyEsuBUXix9BmBd5VrPj9qtP/yK/X3rWMdKOExKNjRctn4jH1sec8dlRUiV7UL+WEutPJaDFZ6xQPLrU/z/ltayHe0InukleeRBymkueO2smKVIX78cc7/tf0Sexb//r4mmky6UuJh1R6/BBY1Hy9Oip9/8Bf80RfF5ClGqr5LPx/j0EHL7Prh8J5QzWEP7CCVfC5UvWVnwLLmiFl62XnvmpluoIlz/T+F0CcKz/synYTnVoypaIjOM7jBKsPL0hAn/Alfnjmw58qMrUXdy/innvGBAa8SA7KaDcBnfJRZeahD38rus0X5c5tUgLnfuCs7EK3/q43C1Ab7pe9aPZa81jzbZ4S3ZCpsZGMUf8ny71rIe+mZYR7BhnxQd97VAfZdoW/hY2ewjA6NX2MaKDGwZMH6a3Js5K+JP4NMIFfV9ropcx0puZK3hndr08J+H/cs/wWqlhyhZl/8YpspLkZKYIeSJj/goft5OtnvSNdpEhNrrxJEfHlf+Vv6mR+ZKXzk7qupXOpw5mETdXcWwdN+sV2y8NxKgg1Ch/7+qlkvrnvLznQ0ohbmaDppPnvyVCu+yM76HhshxEdRwGblf6Czni7ku3QnX/5V2Qkd/0Ix5ITqOjpKey8ljYc63RL8SJHriqnz+K28V+Iuvl7zaUw/fP+5rot2vkmKrwRuWaNLIwIASCDtA6R6vSmDuvMPe/d87EiFcsKq+833ZS/QE/Led0k+CUN2vqOb56gQGzqiCdhhqoxSI88XXBwXP+1vIBZbGlkuPf7r+UL1GjY58D5KJ886Ydhm7kD277//DW204FfoanqLbcOyh/qboMEp54rNKStx4B2oz4pbAeqnCNTb9he+2Zh9b5s1NHLN5ZD9Ul/4FT5D5/IfXEfs7X77/dxUHQj0SesJitAr9mND90zr2PnP3+Jd+ZmnJaLZJfk0CjI/ATMTXqMijhlo7/A3Ia61K9RgDTP3TNDlqbZ2sN5SPNm1/64EccLgGGicit0/R6TEj3m4NDNuxD1v9D/3fPo6L//0v32Vc3/CiJ0IQyXa5y1USDYDXQ+2+2J9KgpsZFyWd2BwF0m10GOdtU9ENPph//Dr/BoNDn7CAbPMqE+5YcfYFK5WZVGJYZrqkz5y8t5eWMOAEF3d64ilkDDvXEUs3B/4DW1I7jKRC6cAiF70vxG1LMNB5klTEAf8cJa89m2fi0szjD/ICPgWuATnT/u5Grd538iC68vMxDswmk4+ubGMOxrNkUAPdn43v+RWVQNF2zrD/F0IX/GLbJJjn3DufZh4IG9quuIBT2PoYi09y5Qppmfi9c93zc+kf5cc5rtKyDEDVMAuusW/ILq/4v9gDT2o//d1qmPFxLl48JvZrjYFIM5EccBHdgkurRux6CeFzva6ZgVsvDcx6sd7OveNHZASV2ak+Zpslux/sBJMhUNUGV4y5S8CxrNdfIABlXs6uPWJkRVOmWcOEKyvurgYKrgFi98VmBlMUkCcX/ld30rn9UHA7wj3PQ38uK1bU18W/8MILK0faJUYeSr/kV+twPwxdohBhaZ3QIhF4a92yRBhrkGuxJ0qvOylTf8LpoUednVQ6KRP7tXsFhVHwnGTX/JqTiQhal9ma99c1M8TXd/87ibA+KkGreOR7Wl7+qXldrK6dPnACYOKP+GuKfJ5i3wXr6ov2o2Wb3qKahSYrVtv35/gQ2m/bkM6pmdJvDOkzrI5d4zM6ov8MVnOeojtvxsct5YLhWvk9nMa/L2H7r+gXPupp10WY74fAugS+GU+bf/8mlvvds/s1Tkb6zyEDGYef42ZTACVOGOyUukrZF/QFjrtsgzEnwzuV0ZnB3WZuUK0GI2gxGvepiLPgMvIYXMdWkZ26V89LBvYEIzpwtwgVKIGORE28ZHdGqRDntX/qKzPR/MT5fYiD1Y4SCWOJfsehySq8IhvTqXeun0/gA0VcJvCxrXn+b/a9MeNhpZmv8YrOE9uKHBAF/xUFN6BVelsx/ltvErcWXW0IC31d21weOzGdvJ9n8mf6odJ02C8oh49VoditOpVX6DB+LyfOgbxM2SBIfnqGqhwsK3fik6PFGq6GPVxd/+x5m56flyeq7/j/VEqwMkKv/Gn/IocTmD5xZnXhr+z1vhe4Sj0xpKw539DeUWQaaatB61tGQ4b6Yd77tLevlF1iA98SdfOzERhsQdji70+HBy3Wh8wkqeKJfiXf+f3U7GTHQuxjbRhemzWABkO/YXLvSkGX4s2RvxhfiqscQerpviZ6p8eHbt4TeFihbbNrIdhnb32+o9tmEz+1D3tkGZJHMtP/tdLv+tzgXmpfwErWOn8hYaLOGpEjng5hxY/51XT1nQNOHv6jKn9fRPHVxZ1tfG9qzDCh5s4l/0XOQM5c6yaLqHvuVaXa/ui5VpjqWY8q0x1LMeVaX0EA/ZF5fCGMVgAUszrbCHkhRpbMOkBs9mW+Ertwa2x/HdbNgM61HqOmBhKZB+6zufb5LSbBRwKwCvfs/enub2fn8gWvUuhD0gittI2hNhxcsrN/ZEK68lgj4miyBxgfVEHNtYmEgLmb5U66xd70Bicfv2N1gVlxcJur4f+XEI0M4NVFRn9POD+uYYiOhuM5QdSMDcG1Bz+nHp4b1w5U+QhrlGoD19hOizJ4X6k+vY8hZ91yrYWI9yZSME6OVe6erpEr1ZvnMr80q4Idl/JfUkQZucVofVsaZk7w8M2wh5IUbS25QMDsr0SW8v618b9X36fwrYdBq+MV//CV4FVdClf3tVTKIxh3ynV7a2wzLkk0C6E5nNZzZ2OGBC1zm0oDq36ZfPjiFbVg3ydbRB95UprsBZX+Tf6pZWJj8uIRobg0+cbY7JGC/o4TcqPnQf5aEdSH2e5bmYu/JhIR9XiHUdHCvA0Rle7R5IS0ntf7bt5P+AH9da9LHw6hYFe4pg1W0J05N9pe1+UsnDGm4/tT8ByPxLkBlPeSeDwU4NarOAPykA8I+WbiIfq+TRUfvHdZHh5sfSiYqhtZgZjkDnjm6yc018CYGAomm0QddnDCH7Sx2NXxDqFCPe6ACXliDhOANVWTkW/4PPRB8eZXshp6FK/3/KrBYLSN2zLpU/hBP10ZsUE/0JXH+ZTbkrAlz/BPClLAxObL060oxkyqcH/X0Ug7wPwNvPBlO63iaSfj7bf9h6NXMNe+OsuF4XcXOtMh7EdPwI/3djsrWRzoqlPg3YU0syf/3VfpV1Lmbc/8PAuZtz/w7WOWnn/h2sctPP/DrQz5o4zpu7EQT1EylPuuqPSgRlIeZA/aqzO5sdG8X08tDPdl5ClpGHhWy+CUfDSwFy8bT3z5fa/NUS4g1VNu4bogYjag7LvcaN1fy1cffuH63EgAKeeMSREV0Cc7eeiB2fT/tbf9e5gYh+d5d1r3JcaaTCB8l3tH3aIOaa0PgR8UEWZMU0dmpeshR1WaTKC7m7vyrzf4MEePBG3SaT+Y+yF/EbZeSk2KBk182jmD0lRUGzY/6yropzJI/Mk/yb+Mzlj6xlxKNG4E00faVa/AFpyJaVa/AF9DFzFD5lBoIt0Q3OiFVAqWbLpoR1rCWcd+YtW8un94THNDjv5CYO+qS4j+9gU3sbvwD/F3kJeVTPpp0hmpIYvdGQaGwWxIEc3dleLk/qDkUrkfKiWsSnAkIh4YmVZAjoNFbqawdK4mN5MKwkmPbEJGCB7xJB1BpN6hYgWtVx00UuiPCCOocFZx9/0P/incYudBwnKbaiRzNofog5o06FUMSxiaWp1umGPuYNQEMvCImkK9P37KL9uHThQHkDHTE53HyB3hJYIyZGLIgbbob8oaMoBxgRRtqt7+BCL5HuqRDSwtwq2/mM/BsX+6UHqtxXYDAHicXECp5ojD5cqnxh1gbs3YMGiMwQvLMQfdVZGJDPfxmxMxiIJMFMwC9ulY7pI4vKWPwRzdkXwtMVxOwn2l5e550YVFjQvtT58acCeJs6IprSQZvTgzD/3RqLQTR4K13iNQy65vOeJmrVhMEA0hdvae1ti0F9jFG1ZHCMJC9ikZiRvwPmjIGe1gQh7VbxwfvpjXLH5XZUD+SUQGpUIaPHCGDbqs/LSFhMPnuepr9EJmL1lxkF+AQs7FgFz4MUuQ8uM+zFXtL8uatbzh7tQsQ9dH7/93QDomACanULkPQFluw2E+EK2oCu+c5wl7ohFCPuU6A+ZtJugI4dkBoqMuIxh2wA0km+VU1jqY07MO7zMjkVaeDAd9OtIqgRU1onm+tSwV1AUTPsdI+LeVctrt/uc+is5jLwyWEbQlvpo0WcLuMdefU4jXbg1hWIRcvx66gVzATac3HZFOxLin4jRjecxGeqk6n9BbOVqT6uEKX2/uBU3TCta+JLDpyuJ9QeMcsJHCNGWGf0IiofYhu1u1b2mJfSWTaufEJNEIiNfJRBGanp3ykOFgEkp8NhDgL8/UcoO/eDZ0Ykz10svlt+w0V4MVDpsc19fN//u7m2Z/WiUK6VwQbrfK7/+9enfGr9QhPUbCKq2r7Lqv8MU+YXt86ZH3XDUSVw5U+XZf1+fNvcYjKWNLvt0pCbMrteN7oTfLQfhuPQESklHv8s1Vh+zmORglu3tOX81cGJq/6y/8BFcq+EGHhFrI8i6B+l61C9vl3j9ImgKvb3tXhhryR6xZ46z2cdds123z/rvxlWE8G0ff9oEyDR5xJj8EBed7vTT/zF3uqNxW2cXgiOEtjTJJQZkQvCmaYosmaJ5ZtOSrtUsqfr8QxLTufK8jolHHfhii83XiB563u1jWSOPw1zD9k37UP7yfT7bcBRMKjiGTwLTISdOSAqb6EZUwg68YlEaD6X2F6W+f7HHzv89PaThCwLfPK9LS5l/1qepuzK7Yoec05v8fC5eeJZP/3sOUHNCia8XKsM5Gn7QngtHjt4e+LUSsNnjy2+lQ/Wt/+Bt2X+hLs/eEqc/Vf8/naWwSvTMxQHHFWZKWM5zAVYJKOTRps4Oc0sNQ4CwFq1KcDR/5kVNs4LEQyVXJBgxJi/hS6wOEHTw3S9afSunJ7bgS2QMYLvg/t6yk5+F+l5lJ3R55Ut/jKVPg2ukAAJnP4Fz+U3UJ05rSMh5vv7wTVTJiVesSNsLpdjzSBX7/5iXKc/vym+pNnXo4jG65xYY8/46SCsNX9Zd4dOp8/gVzz5ybuXVtIbFkepJdc3PGmqV4RThAWcuBw/8R3x0ReieGxIiGSRmJ1q2vxx6g6wfUDrIUgDfh2wEKeveSixIgZJ2UKAkBmrHESI90Bil4q1EAazEZVLi5afXnmOZeT48cZN2b4or7rOcNW9mWgyCl8NNg+PwnhDoaMKmmx4Yc4sJSfdSDtnqvSi6mKEil8JU3k5GoJQfKg5BgUQkEG1OAvGR569HaEhzpie/eIDAYg2rWDwxleZmbsx4yJ/W2CpOxEMOqs5JIzd0h/D8i7vOJwJwAgObj0e64VOSS8gn/SFPac/Xbsj6q8ZpA4n/ThtMZx5K5V65K21IvYLSUfZbd3kuzui40NMdZePYvxht5fgzJScYjMCd9YVuD9CaDwucClzlPJYUhqMkP/pYkUE/5XV0b1AbDj8bC5Nx4Q/InvpioeUmNit71vTKLoidX28UmMzYT8p92oeDEPtHWiXfcKFMjUTSVcfTQlRs8YcWJMcLBVqKKmFQT6nWDYHivOTW33EtJ2dRLCItAxdlu0/A+O3U8GzpVbVth8X4CJqifs1YBAI1Z+VBBj9lDAN7tv8HCIk74gImdiX/BoaXHw0dtDV1Zd0O/1GjiCfl6tFWdfFBvZ//wa9QW/9Dyhrn984v46+4vzRWL/5pRkpltF+bHBcrUf2QgUxADv1orlG/w110wMYyC11/cHn+9pXvxZxOOX4DMyzLdyl9HOhqc2q8/rUnrbD7DSeL27ADPUZi62NTOfkN5oEzKV25c/rTuANvKrYrdZil9a8BSpnkvWJ4DOBgQ/kPxL//hNhh0Xm6yrD5ITMX5A8t5LEcT9CsBoW1B/19yKSXTDZBWvHb8Kc17zhUF7Lb+OAJtIpQeh0QD9OarWaPe5RH4nLqtRbhU0nZ9o65RgbOYgMyhbMcAl6B6G7sU/YQ/+TspBTwWhjrIDjjxPLxaKfQm6T43v+K7YM6zrP1HucafDp135pZKWkiZMf6Dfdu4NUxG8V+e9zFF7fRZrPgX+ijxnHiHHHVOVQOvWYE8UsGDBj+If/lu7EN+5Ip52fjn8uHjiU7V1HRFv7/6hWd1dFKbaUMZvvCWCf/+LsIPPT74qSZxr7KMaOed5QvqygWrxWYef4R4Hwz7ZOlTD3DgW1HqkJ6X+e1BjniH8wXcqiOi+in8qri8u0f4gnQC/d6CFzA7emAv8Yv1o22j1nv7bIbV69aFjPP9L8YfhwmEt7/V5cUZItufdOnJwEMFNco8p23XvyKtS0rmbnkxs4vqK3MWJSnXMENsQmz76YcrYJ064yvw8qY0kqY32ulOl090ybpHVR/y8WokI7L98M4K1JHxKoZKHn6ATGfEu2kScacWf/k7w2dxC1BpK48ufrsXVfYT5muP4SIfprRSeW//5+rzhXaJcf2kSWvyMpKrjgg8xyUTu8kY0AINxM83fBoe0TpJNdvlXn7QlmBGCaSn2u13xKximu0WmACLgzxvBpM0MpjuzdubbXuH4DaPIb8XImNbhLeXCc2dkPmz6KIibMHgCgl/385fXN6lCPj3U6/uYnHey5cKBGr1b3v51Yw0Jsf15td6Lj4IUjssChvml59c/jPFzb27msTg0W6Y+y+PCboAOZcHHKbUjcu/6V9e97IM5w+7tU8GOnrOvYfZ/6tm3L+LCXwQJzcQjOn4iqBAmJyLL7gN3oxmvDUdIf+v3jllBTvrg35vD+69Nio8EQ0lbnnvq6frjRq11x/YKWfP3cqqIhqLG6fGGmHD9iTCjLFf/Hb8210sX0LIboTwtD4wuc2Zf3hP6N1OE5mfgh3S39Lvz/mTaUFnfefYO/7H+dmWYc8Lb/H3KKG/UT+Pfs0+SQeODCCAAz53z5kCYXsM4K9fdBaEU8u0qe5RPxk+Sywa0G2hFRalZxWsL1WgzDYXyWaqehLLAcc8qW+fH1i6/lhlDUj4dmpCBK1rqCqD7u44JuwT7Sf2+lV91/34Xr5ZlhPI6R1R8CnfeDRTVDCXYzz5EL+Fx4VSDt+Bfk53jFutAPkpzvbxYXK7YPJt7+VEx1RUdEk0VlY0GXvfejAjPEYeB5lsZfOW6XA0rvzsM6PA1MN3heGLqLGDZutBCUoZ7VeFcgcwg8lLTTECEGHE9R/HvMUpNBFTykbTkL9HYrxCfkdH1aabA9BZitFUnliq3QjoIms90yrYT8292yWAhxmzOm3nyebx6P4DO7ryJCZgJJBy687KrHzvDd2tu7MjU1rKK1SvwoFSaAuE534/y5ZPUt/BZEJXC8bqgzhVH4y+6ff8zIqK6aYri8v8afkYhf3d11LaN1Rw5LU0HP+DlP/kLHitFov9u/+rT8B4smnGZbng8Wkr5CHE4ifzlzQ6gYbxkGnd/cL8QkWFTcHYtIJwMroIzkB+yXqLSgN6L+1/K8FN6qF/VWo+z6pLEw13rfVwTsSUR5iIIaxtIUrED+TVeBy37Af+mFg8CD5H0RBPUIRvDhN11oh4+ImMbtGrJeqhDC5tK9j/u8tRqzNPrny+jsAWdRlNhRq2ANf/Ljz8mOeJaR6EvoyCPFhYPDFQsqfnRpDoh/hrrejqAH5iYCg1AgptoaFMhA7X2hwfJsDVoECjtNtYPpXvFEnleNv6efbUo45moZa6/ji/honnBq69UmP2HG3dmA2IDV2KdXIyjCW9yBxJV0eA7VzLtqL56+YPvq00Xo8BtEup/o8BygSVdHgN+9x5m8CdddxRsfL0xir+Hs7fWmvGNQyrdNxk0QPmXQr3mFAciO2wGLBJpNQTEz0BfxffSdXOmL+31ldYZOyX3n7xpDKelggFCtTss3WxT1R2V7ZwKKs1eN4gKR+EyloCtIEvQzPGdpV4HyjsfI7uX6SPqXU2kUl4/+2AN/90G+dtwLz1jNIEOxX+wDl7fJOtqEyc17DVZbHd4QELs2Y//+4FNOvueLvySgA5Xl0A8JnWiojTzyF/0oTANgRGouzGho9W/4NUgMHfTn5Wln/+uPzINKE6bB9J//gGMJqKdYw4rpbiER6vbgOuuaw7cJULWa/aZk4dncUwpzuGcC1Hp5O6Y0lCoEvGC70AG9OjEfURaSezv+QuuLaRM7mL512uWhYdnYMH5EOe3XhoqpPoJe6nzl4XQ1J1TdHgNlVrsdHgOzdU3R4Ds3VN0eA2Rm1s7deLpfdCkkNaBXjqA6tV5lO1JSqrbdq//A/GPu+l5sAmWRi6t0+w/6jLzFbNsSzlMhvd7UP+GtDGDSi+kwFsDV7R59LY82oWl8WFdelOFgehx6e0Mdf9qAosovR0Q7qAY2wd1dmP3UiDUp/G9cdvCP4lj5fapAJHm4dBUuM9vchTEM3iXv0Vb18PGc4CRLHm05Tfffp0UditR0DaUdX28//YXD5/FNm0Ne8gc2ikpsd7/SLYtS+/lpZ4rawcbuSGuyce2yWtYrCAM2rGeCv4l5F6Zf4Xbt11OoNneMeK5FL5ENPEnZlORFo6gW/4df6jASArMI03ZZo9TUghmHLreavMvuxAvao8LunypLsobhgk4gbUk8E3W+mLKtuApxuMHxTX56Ic3EM5w/Q7jPDkM9wWOYvu2SFIvrQ1CSyenlmrN8iTDaBaYFFgHXfRxbsSwJaRZCOgPluNoLOuiCZx+i8DXrLZOLiWHHkYcAzxUc8wzuuvdFYZQI3putl8pLRnPlz6+yl2J3OUz9CBlJh/gopgsRkPR9Z1tN/jvAqyuYR7dWy4w/dWpKRq8cJXdfZkRwqrcvQsiSwL3M/1W3di+iMMfu+efn/jDGZXp42EsEPIVAB9ryArAAIEhw01SKFsnRI5JLx3i0JYrHE0LI1Gsdw53DiXkiEt1oREUmm87/8nIAgzeAWtsUAvMdc5fF4jckg7jcBnGSCr2GavxN19KvPl4VNJITCIeTHjLZNRCP/8frTblf860deQLNKSAjtpJIuu4HrtpcDxFfa9dAyFR52l0Xmk0jVsoMp7680GPgbh8k77i41rflUmX4amqlAbn95/tJo6Z4VtB0Dpw9RlJDksSAHzvo5f3c0XgQj/7D6PcOz4zOyX/U6Z/vKbu0ynC2JPXLvur0d+VmL+H3O1jBZikoNCHQka1lxhqUBD3YZIE0MF6AXlgQeOFpBf+q3nnLz5fwEa+TToZApUTzTQ7NhbLiyn+GvwzvG8njJz8+PcXk3/in/RfrNMT/HkQHM5D6mZxM1xBx1Y+cuEhBVGEnmMQtuuQTwx2dSWfcBU++17Wo80NCOdzwfF3EFM6L2IKwxCWdaclhT1JMfHXHYjz1ogQ7sa/9pDCp+ukm/FV5s4w/HMEwG0YYY35/LuqLVO+h1UBRZuMRvA+oOr5QhBssof85eWVaKWGe20sF0fnJYy8Ng7sFbjB3g6jErz3NDoh3EEVz/Vab9vGo8h//3olWTASWnekTDRzf6gktn8xLrGa98qSGllYMfUNviHA2pkfV5ttDaKaM70KrdhdHihn+CcWOm/0ZShMRObDf3NkxX7oDa2p77EcgG/aytpF76p8g9RkV++kynLgjB5E/bz15DmH/gvVQ7TsE4jQGNpsyD6+TWgsk4ILh/qYif5Y/QGlqlulKHjUMzevsWRPYZLpJaKC+pZ5f5Fxmnt//Jp+keNliz50TUvmiMWiLvtz2+QUGtj1S0PEPKL8RS7Qd7xzLJN5gfjnGAjCIBfbIePlbLz3zsBpuI+eBFokGsk78fe/1EcqEJI0xOaVgPgsB8FvEdnJ917vJj1v3+E9vK3vBBPg2JSGshCCUQPYUA9oX+fr2XOf+Y/vPjOG6xPgvXZJjaP+qWeiK3NYPT7lbWbn+F8DUXvO7H99NvnKjkozLTob4XxbFcb6ggvXWfSR6J4Milwqb2cwMKjn921H38TaUvCu2X1Fz73t8foinutYuGId6+/u4jFXdx5WQqn38YTxbfyv8CxLgmhnFt2+3guzUvTYgFbeuIpXt9ucU4dblHbmmZd+kfooOIEdO/ImueBp6rqfu1/p5xgtgc07Y4eMkEhC2oWeXSpg2t3tTJRuDwr45eBgXN41mE9rEilC5jjy0bblPsf3GMsXBhKjeFf3VsJ4AILLedsq9Fx4ZzbXP5EdLOnl63YRDXTQWM+EIrf+E9fm4SO+C36EEuMeT8+VxKAY/68GN2nIAZwIL5EyAU+j0Av5PHI1RaD/BTgnCIAjjS37XmQxmMYCaToGaMAdicEn3xhEvE+6eRbO/3UbsGNq94a4UFMtihYUglPEcmHC8uL1XR0lpF/uWiVv+WnWc7dcVQSpSgprmtb+T7sJuwJWiyu+P13uIHUewCD7sRK0/GMekZO0yaqkI15J8SNpXiDAi9z84NaLCyZ09yndg/f8PFjyH0AfJEunOftqgeoDUa7uZdmfxWjoyexOAfwlz4LKM2WXUg1LvHdWckSXW78lL9DpYZkqFSbIEkEjATcu11Bz6PDItEZh2eIAH8xd8FFesOx/cQQFPqFfkE+Mn8PqZDlxLYKauFyZ5+4LpIEGR4ax8Rbr/YCTF/j6Pn3+e9PcWMp68+GKc5JNBEASHSL8SzdxsTkFjdwUrZsNkzmmNP8Rr0Qb9tssPWE2QvUZC07o+iC2q14tXia3rPiv3a/084wWy/R4BdvEVE9evMs+H0/0ohBU1VtEpR5ihHxSDGcuT0FReRCWKUOBrMiuIIYYGSPWQBULJVfOz/ixNMomskjWLPQgX2BHF/zihZnc1u6UfFy75EdLOnleVk2I/DQ8v4Jl+jjHD4eGzjPpsDVjzL4lqv5FXLiEV5of/1fBlQEXZG1bhbdoF/8e4LXfmvdaruqBpYit/4ys3yuBWTEt0jYfCmG5BtrF3sWS6sBFbE4DRUNusH08KsuIqve6W2kcZ/zNYm3rUr8UkkLGhTeFqbR93lJ4/kc5CWe5ozjef3PXPRgcp6uI13/dJPho3XM/BJILqGBEYAyJ6yTdVBP/rz3E7Eo1zC6L0A8RyX3Z/cA5Fyac7sbEp9QHrzoh1FUr32RqU7PF9gAcj3w5o+HKj/2PV0TYlntUbmEsks74TakIVglXsY7ivhIjZnwUZl79Dg6CTvhvMTgXuA/v507/DihNwqrcB+Yujquw5ZtWXuvx2MbJyYKrPu4VudHOwH9u7X8uXnisAMlwMf/uN+Euh52zMNdFmp+DG6p+E3UYhLxAqiyFXQiSEn/kOp9hxRpXDGJNwMTUfTy6g7RrmNGT8tjRSr9TcZNCXZtQnV+BTUmJXH27gURLuMBZZ1djp9nH24J+NuXgN8FW55gv+H7h1e+QgS9bvo30Qw/MC4RNvho5leRBhFh83ApD0PUCOybH3T+4KMprYucNP+73w5exAwN00iWOpdKLxVS4Jlwp0lnFs7/XtQd/zG6dmLQnDg69L/c00WI+iwSwwY8hRZsPdRXY0nkMx97zIB8LN4u41eOx5DcR9Ig4cEhElgA+1uwSwMf3Bl+hBsNg+o9QC13yg+DFmAEndf52QiP5b+lk00Cv0sTOn8lZIDDilLWsywGd2Q9fjIEo9bCrz/zffnstsxbwzxaf97+VKjnvNxZhA5D8c4U5E73sV1tNxXdBQ38p/8fQp+Mo/uzCM1wmQ1W73/Ot38kFagR7Tw/c/qPdsQ9A2jk+ngQ0ud4DxkX4stt1Ky6ib5+JVpiv0le+wKW62ZuH/Az5cfesjCDB8h1W5Fpl70iv8n+lIeJxAUIXm+DMykr0KXr4lag7daaE3nW1Xp3OtJ+HPAbt9E4Q9R0keuk/yZZQKb+gMMTD4/vPHiXeaKDcHko9UaDar198XExaVsdN4ATRbSH3QvPu9BvPUhqtmZcd/9vjvWGHUZ6Xadv1Ht4P5cc+d/BMoB2if/lBAnxuhqhbjwV5eN7g5uWWV0lfz8oIE+N0NUKri0qyvv2WOwTDL7LIA2wRBmuzfPfMfruwl/DuaGfhu657ZYr/ttmJNJ6Yl34ZTCFz/MBqk2f+Pa+BbXaAVbOtlwM+DPa7801PsoaA0BTrssr/3CsO/62I9ATNbA3HgnTQLrwQiV6vLRBNH/mL7wlBxyKJjIaIfOc8tIxhYe3reh3BuHwrwCHeTv8xeUGvQbofgfY8r4f5SMz/1fxh9TIZEOi7NIpOYnLs2zpu4KJHfhPvu9SZPYW1JoUvrfNUNOWoOwoOInkue8NqPh9IkldsPp0PGpB3hBgep1Ra2sExnNYdc24LznjK9Bmxf4XDZPW2QZkelSoDZy+byezz757iiJPFRDntJ8dW5KseFo7TUhsZhnQ0Nmt54vMLMXadvauguRj2ZD62L//F53gjR6sx/b3ozctiuGrNR0M6m63pc0yalXJ77OniBRZV73k6yRw8BAGJniM7rOUCw0DSG+2eXib17RXRz5WpqW183zuE1CoXYW1EKK1sK+ULlP/8nya+YX59nH1PPs4+p59nH1PPs4T+g///z8H9d5SL62T44769w2s33IlSmMtfVbbN0FZ5g9qJWz0KmhG/j/kPEERzBN9+HKbNX7DhRCxY8xAt2h26+pHLD6DPCgjT8DuwH/+ZHTUhdg/+5V/4rX53a2L3biQZUreeq2LAvxoVhv/9HjXFBoJOoTqCbjWliu541Au+jtu5e0BAoixrIPlWyiq3BOInZo9c/w1PL2sfj/D/mtPtLRe6l24Ni5IqRg91n//nVnc3Iw1A35BkxT/wI2hJGTDEnHYuRx3oyrPfopn86z1ILmZmfmJzlwxvYYHBUvTY0/4p+VU1/pO1b/kQ1svxR5pPgJK+ZL0cA/qT3vR/yOqk9rSJ4fdBHNDn0Fd/h755zs76A/K498SOU2vG3neE8GZRxziqX3MIp2W6enN+4JcOc2+V7XvNotPwjD9iNflEWuOio0JeVv8mi8wk7N8yOerLavSvLZ3WqlO6WAf/BtcKjQzxH6sFx7IQscJ5lfUf/qfMdxbq0owgY57e/ZM8q5/HPPQUu3vrf//vyVMVhVwChWSK+lPk1/SvF+JMtUgpl1JjAFyjtH1QyKpUu96ZrxJ/cjpunxp//obhdN7mt+muRfRdjkS/4Er3XLn+uhyIHpkBpy2d8GXHrx+bOmTxhLQ2gTuhWYDZEFVtVPuh+gRVndzmzTyokSHLE/JVKSOKcS3vh+ixIrPz57llOruyWkRP9zTsjhqOgLK2/fR43//+P6qlbYJwABT8yixvu3sgJxZ0E/MtZz5zDL7ErmzogFFgZm3ZPJyGBCGsB/MKpajmF7muOXzyWLc99QS7LAUDDq6efeUxq5Xs9dP/zWGkw1WlLAwlLEDimpjX+DKiIt4PO1Gt/6ER8xbkNuAIvy3CXL94JkOkAwA0ZrueMhLqrXCDA12bjUaCbAGmxarwK9/krs2JVDqqk3+BbuwM0hdrtmn5MizdK4l4Ep8GFL6iofk0yoKvjV/tuRuSdXqHGXLudoMBB1Oe066NYE/pDywvJN3gfPYdq3w6PvfYcOeuSyyiFzAX0Y4OFPVZ+bxvf8isZ/pb0FKYw/oYkECDkzm29WH2A1Kf5NYxxx7dV8n6VewHNFZu3rdFBbWYqE4VYa5xB/uz6mQ1e3emhiaO1TegLAm/83eSjAnzUlTSz4aPah+sUOdI+UeMsJJlWoqJjA9BnDuo2x+XtKnoiCznRG/EBqVmD6m9P5HV6gBDi1VFue1CeANYX13P+3EjWWzfOoFUt9zf0SyXSgW0rYwhULa53yDWeWP+aAeQ3dyC5s9PSAnGrIhwx6OsxkfkakMd6y7ueawzyKA6nqDZ+mR9NOffmid7UU4FSSURYSXzm2MHN891zQz+h8hexlqWQbNu2PV4uRJhk19Nf/NnmndwpzXFnWoWV5yl6r4vybJZteyLnhiWKfNESj+ItTd3kTxT9jPJrUo3Hf0MNI1r5w9AvCazZfCQNfrz9zryG7UJuP8jQQrePFt7tIetg0F78JJxwFaOIH/AufhVFfClQYM1jtCJ73zrGgrwv9GRkFILOGB/utxUhTqXx/gxwSJdvlhzl7MteONpCnv/2rY+DdjSQ1QXuO0W7K/tvBpIcRfNkdou+7xLdjSQ1QXuO0W7j8/Kg5agjfO08Bs0y059RiL4d/GwHA1zCIhv5/JsJSAosacfX2f8vXO4J0JCx5i78/JmylzwX1skhrJspk7wMecrJHlklFI/GYL36OlN11UcM5uTH4cGfCBUaqN/5oCA2qWZ6hkxfBMi/4NfKWtiiwFega4sfIu4wDKblwWbA0z7PjgXW3VSc0BQ5gq/NE71xUftsELXxjQyn7N9yjbwFv/PbH8uC9by0T6iK5/yUN6HY+fQ5DaYl67u0baV/0l1ld3Puv6jeyXs56T6kvFmYc5geUXhT5UGImz+O/9sCXZIphESkF64Ww5l6NnNzh761Fr/DV9dUu3NXa+3H5FxSfL8ywQgWw98nG1//8reJhWsfTlv6gg3cf4fd+JiwNcUF/4jv+TDDg/MoGF+YHQ/Z3Px73TZ7vKs1bh7d2QxIT24MH38TBJ+tsfHR6jPAiGZdi/DKfr6q8dDPjLn+T6fHy9wnSWib6Vg1Sv63nZRfMH6M38VLVpo/5VlUOmqpGtJkXjD6+KN6MBhl5FuSrdCF8oig4dNjkYDysmAHrxWu//y9VYQ1Z8d/+/ohseHeP8+f27zgNr9hFfeZdWNwHJW6JC67ehR+d/81f0hv6P/XlE6J+N4uKYC9Sj73FsoznrPXRfKzSMHcAqWvWa1/s593dKt2QP9eVd3bzhNUY94yLK6G8tt+8RuCfIF6fUwcrUlHulKOfkRk9NuX27SIf7fdGVrf7hx6bPXlI7bqP29cBYFlhYWV1TyWArt/y2dvZK5k60zORRJ5GN9e3IdwCRJCg/z5lasxfE5mZZMet54i52dm/ryeC+/tgIGLHHCgNz5oMTebKi109c8o6Fvvv5UMkVOj/FSVyqWto/D9/9W2mMbq9nmiIULwdu4lqbxHqrkAIkTHyoZzaskf8gq3zCMsn3gJVycH8+c1VarZJsz2dYQeRjoWPXbrWhZOGMOgE6ljnEUQIAP83yc6VwRlnJ4RM1kE+uTannIs+rpObv0UZLj72aCXemVDMyqroY1VFHl+dZf9pB3OlS53//R6EiD2QjT17jx/7IeHW7BbX6/XiiKBkf1+vFEUDI/r8hkwj8zbImtwSNe6Qs/ukrPEx0j+2W3HHzhWCJWVWRnqL5aTEdRHZyGjvwDBCDm3GboYQdXSDDiRhduVGfOO6cDHXZvwdlXmpMw6Ei2deUjRSElolC+odkBH1ujiuamD178TVWQaENuJn5oah/p/XJpNePyEyTkDqWujhWoepVRWmg/XJo5cfw/NPuIRqp3/GTmj78AQ/QD1sFoPdha8ZW2fdhsHvusaBClRdyky0oUzZzox208Rx3OWbyAL13Zj0AQ+fsMZFt1uiYcIqAzfMqP0ImG3Fl5bC2VURDdwmTufaauiwGx2sfLv3sOJOYb+tIWJ6zhrr4CjZ0tR1L9txvsJwshSpjK23JYnOnZV/kkhbTkbArF63K0zLCRDdiINcum0Jn8wZ0JGGW2ulv3oe/7TuMotqIi/yeRHO6W4F1pfwbc3LM9qFlK5dzpaodbsAy96uLhTKr/DSWtQ5Cwf6PZyBZqZpxsb3u44QctsO1z6KHjeWP/lUWDM8+GL95efCBmtjX3D4rvoC8DomVUyDOQeBTTUz4qAP4zNrw452tdBPcODWyEg3DDIfmh01oM184L65YaZE5C8W5hZjfSthxrkQ3p1LvDijPwaXVv2f4LcWgcoaXQ0CGcYJd2pyNF0ySW43ePk0oICzecPSff2+OwYKY0ZeUUcns7f//M9v8+9FibTQqYcOW7Gy4qF8dnyIZoMpwghuLG5L9Z4faDM0c0gRi8j/EPNhqsUaSxUTPnla9JWNyNODPn8ypvtPNttCBi+EufF9G3KgzWBZTEr7LTD67lyASGv6iyf6EhTXVuScyiv0n7Dpvz9eaI53bqB3CIqhMjEdFGfk71zEpP/glyB1uOYxxMLlBzgu9Ksf5c/iHknv9kvVpoVh00qyY28/iHknv9kvVpoPoJspHM3YionpA8dxmi84aHVbX/GL9Dtf897IalYHsmwTn/51ouLxKv+RX7n/YVQ+LalZ5fw0jCMkXpEkjAdNKSXbL84nBe8dCyRlyhro3AfLmTiXZBX/dSH9/owE38W7SnTrrsyjjNmQEjcLk2GIYWZRxmzIDor2TYYPwv/7Glw0mTJFfZHPe4U7LfP3zb4oPcAPtQsEpxCM3Pn/eppLfUfXm8QsqVMy7LUMT/QPO8jHn7yav9NgAFagGoq7ig6+GD0BQZDRWYeCtmpKYj1Alu/pR3VUhEt2i+/a309T+bN876MiPOi2v+bN71xFLN9n+aq/gNbX3N/jB+ue2XuWVMcfYAv3RO0jP0LzjYD5PQ9CxO9+U3F/4Fu1MJeXsuA8S3eJVjfCA+GyG4d59nUaetoUCy/RRoCYWw7q+v4bpTfuwu6DuIFCZfXc/7c0/cfarlSeKyPYlm/nwOZfi+iA9qE8eQLS2OZoed9QKBmZ+8+fKaWk/8+SRtcxLuURCgPG88WdrfLWy58471A21Rr8aAnx8Euyaf0AFcbAqqTgU9Q8hpucaxQ3jfGHR8XArCHkAUK4EpKOad6JssBHWT7NCMTDnXuxJnMyjT2iL8Hty1sAO5qb/l9IxDInUhcmulVHBhsKwM3HLf8xV4qPI/xccvYMAWNvWuSDZV0M2TtqIy9nSuuU0Fa98KkJDmMu+FHRrWYF16LfvXOguqOhUzc8Q9uV4+aRGUQuRaAKXrz1e2YV/3URExWxhZ+/Qjc6sFB4weLTnmTkXlUuxsHFTwQ07QwBjPsF9IRG3gb4P2e8Tlbg9/L+fpYY9DBVultw4yeGordtDaeCLtf114nPdKOiaPYq50bncNvKsdeT3Z3fGvhmdcSH01JJmfHuHfdgcF1Pv6OsK9D6ee82+20Neo50jo7x+L4y2FYG9uPTRkjeQdyaSwvD7pGgio12m6mUKPTgb6KxqI7tl1i11huLhncRqAH0lj0FKwn1g/IYetHu1L9JpmiRGJdJ91xsxk+1jJ+npcxyetwXCyECjEX5J11W4EzUqEhXOv8UxqtOO27HzlhdVhwkNYZHV+dM1dHXABERRvCrWY5DLI5mF41avHv8Gpe8AiP/xgcyuqEYm6DrcVbkwtwqSyZA74Rgu9PxbJnugB5HrAIa6QFt8eDsS60EHBYjO4oDjFTasWATTu3uJ20ZNwshy78fvck0PBncCMflowU13dDGru5jMoN+w7wB4+o1u0pXz+AfJHrWIuTbSw/SvYs0+Xies7gujwSlPXzfKFH5cNdeW3CoPpjil8ZMBijb+W++67Y+85kk+Bj0K+6IG5qq2g0DdRT/M3YRCoWV+5EktDCrnK21ExZEz8Qs/PNepwd87LYn3FDeciUDkQ1d1s0kqHGfrETcGCHGXrnoC9OFhdX9gi+dC9Kpj0sHiiMUia3UjT/h68cx7/x1Iu9n1aXC2v1a3MHRsaYYWdKwLew9ziD3EEDLlsDfhLnGQuI/See2MIQGX2niTugBBkP/KjN2VEjAMHFvU+9Qbxr8zGy7tcGNT6+jaHGc0RASN3phKaH7HcOnaejRcJrtMD/V5oTYTmlGsmaP/q73DMjs+nGeKkzEivtCDJGY0qbmu7px/566YJ1DeIti/Olck1zjTt9HPMX0R5n+tNI2QuTktsbOAtdu9epNm5RV034nVpenlJDYYlkOxpjZTdE+vEI9XPvd1KmnH6jYipfPn2s51LtDG+TOQVJIDL6kXlatlHhEae86HIB9er8jTw+qWsIPTNBpxNSgXOK1H0Ryu5qLK8Fh+lQPo0AAi8c/jVvipGWS/iNRPNQeXu7T6dVHMzt/o+Z35/9+j5mcHav6PSiFG3RBYrhNrlckRDQ5whg+7W3H/gDcCJSCsSNMczndEHiSQGNtark5EvjS48yZsPEmu84NT/WiIaInCySfuR8/+AFl2GwxJ2HuKgrvDhpJ2lwbFPS/Y6FqGuzOijWjU4SThQbJ6uA4i2HdI9VqQP3tHiKchoTgUzlLvRd7K0KxOqYRzwJdLpdpFl0QP7wCSAQ9h9YOZhzoHKDthyhQGPWqCW9eISzL/1JEkrzevoJ+Sj6aRIcpI0hXTuHbLgmCJvCSfLXKHyva1JfcuccOdd5khkMFTqaDf/8p5zX0JizztpDudO6h3+ajTkmKC62igK0+18f8dBPmgpfNg8bwR2NLpg8BqEX+HOxEwb6b/FAmtInjPs07NmnZs1Zp8wsby/01WiH9qOQ9ckEKz56fNKrsShbnQcN1tfyePJfPgEuIwYnkQZQmSFuHE8EymJXd+ctjhAiHx8qV5sWEDmufc5eruEUgV3CEgBbKtUnJmuhz4JOnus8y/W0rXp/kYT1vnpCVQkMcYm1T9VqwqQUGu3IhzrHyd5840l2xBjutjAetjTq5OtyYHZCiQEMLhv5dXJAlMzvXIPMZrAjWNU1mEY0/6hINu4M6bgCa0ry+rBRf5BkJ2Kpsutf5/fpQbels3iFRkz9L8x/GW2dqFMoSd3EUOPN90GiFH4iMeB1JnoBB/eNv6TxjDArA08EnJjnUrYi7ErMfl89729NkoDknVZ+AWw8/tKozfoF4toR17HpdW+X/5QJwkxG0PSSGSs3tPrnMEK1ko43eOkjYPnhqVBdYF3sBsAGnLw6LdQFrzKuRCAAsC2u95i/mWpht+u8UlHvs8G0X0xB/KSUgv1v/HR/MIv2IKso/D5NPQwbOvJjZu3wNqklVg1AOInY9ZsRnHDrIHDKHcJ3YDfME7zC6DRddL3kF18ZydntuO8Fdi9pXcBLNxSLqn5W7o2O2DugE+1AZlhsRxBBPinEj8eXDcm+3d6UE1kQMI07kJd9HcXobFpmTlCwGui+EdqfT5np4wbJsOV/uL+zjc0f8jJGHHPZm/t1A5A46cw3cU0qjW1ZzBD+wklsKmz7dJUal6stiTklJ9zFhJYSv/TuMFPE02IzcbTn1+EC44deaVHHwBdJM9xUusrZgwt/pvm0wn65mpP1JuJpEBy7lkqqqOUAfyQ14v4ygF2mZA4ZD5SmD1KFcQ9p6lYQEfbQ5URm7MvL8JbOmncWzPHw5KhB+dOyyq5BVmx2R6vIWFwUOtSMvKBNceV1dM0djnIw2FN6IuIuB7hvUTthF6BQTxdtG72FBsWeMq0Q4ROjVfB4EYUI5nV1gV7tiKJ9AGl4hX/JLvFI8/bLHs3VncSHf96UjOwcBFK7gdtVvoBFH97dug4Sy2IqRCZA8Yw59fYQqPpg5ibGnGB/2CrDB0iHXePXjBJuXp4qCiN2TJUxvS+Utwd8NMx+emSeqKc+Ojx+73ZLEUu5XrY5v9WMOqdHfen62vc6tUDgyLkPsUS78+A7UU2eWWNe8ny5X/Dxufpy97ZeYSqRGM2cYIMEdGu0JwVTVspigtqAFNA9XMua1Ks/JkU/C1fQKKmoNKD7SgJYfC8g/9SCvXjTtMS09yqsoTUAfeznb4wJ7RstpbR5qH4JuzLUDurP3FzHmkX92crQ6maaF20tlQYV41BaAG8b6nuv+oL4XMc+JIPGVwgbnMb4il4f55l///iNTP/rVb/RCszl3J2/PdFEiWPUJu+YE21/+Y+QE/+Lwn938vgeZe2AJ21c/MKjn3mOETR90A7ynL0NQkMqfq2k1Ev0D7QoYB2Sw08LDqYaa0v5rols6mbi9elzNSEfX7Tzr5yDWkQXWDI2XHSZTKyqZ6xP+L/lcNK2UCeSv+JCyqFlkb5NW0IBrdJR1StqGNQU/CaeklRlPwQaE/rBgURYbo9vv+JTHM/2xH/Sxl3kMGo0LM69+KuDZytHzJeCr0IWBxzYqsu/KC0gkNTgljTLCTMMBKZgH80YXmqyuFLyW482kLnNpBkpsWe7h2JaPQPZjoJ84z9mQkcMvqDYDZ+IWf4tv67cvoJDlUrMHBlOuzqNw+pst12xdg5PX7AxsxVVTNUAdoTzMRTJGCVqU5zPwBMXptGmBpv1Jb9fajqY12oZNtFFvz4HEB2QYz7cJd7NyiSRyyftNjuyAATiXvy1cAa6YgsUvxpg/H+BEIv3t5FJMZz7t092ok0+Pcps0hWkDqJzD1sEUegECU1xvQkFuppZJSMU4M6vwboD/6aeKla1zo72gvGLhBboVLjWUEBzA6GjAYoAwSKpj5BieS5H70Hk38RFDBkmJLbsvVpOVXkSzzX/0QKwL0gj54hLsAyANAqYwico/0uRvU+UDdDCPmCu8kQLYtRATisOuBgvougEqN5/QoO6mDp6tVmn4XKqHx/pq8reDnu6KGueel/K9E8tQ9GZa3XkH+e3AUDmy0IrJ/wccSh1EgJIFO68bZk2YJfgCa9Zp7/mLCV+pWGNXRNIzXGiB/P8Auswtt4auhiazWnthz8z+dDbl1IS+S2zmqinAsfAzgPvMpc9PKpm1Jl9Q4OXeCeBf41PkB3hgyQOBQ/rZ+h+xgyijpFwTnl8fDVx138ndXr8Y2FDPHZPMA4ZcE2SWuF+suuieUVtpcprR3+L7Mvp1U0w4bWj66nCm5sk0XtJoTEQMScrh3m9FDxUrUyLwX2xh6c9DgyED6lx7S/UVzVm9uTXZaP4rvHBTqq9o1KX8uPxjo+G5hB1AYzBYcc/zE+q+DMo6pQGSypOf/ZHYjVxtGDkEZMMqFpClxJn/jK2AIF952eg1Z2fFlKCbzTIk2TQYo0DTV02jmyxTFz2AHm+k7SdcM3PCSff/8OcSC/xNHLgNKTxhgwKleZfWfLKtFG3fdFvGnnUQ2AK/eEt7auTx0bL4vnGUDrFun197Nt43JXf9UKCrHdt8BBE7/VchSLI/GPTWFT6v6kwJtWMVCNrc/WZIMkDkcOdVPUWhofAOlowr0NBQ5xxPhv7rQ7m7KgU9dQbouLhAOXqNEXHxQz/5rLQixlOH8Gp630hI0XnUN5iOHZuGgMHUd14rPdodpodEwyY4otzyujXava3inCq/3kQjBcnO5wHAXpBgbaM9hy7JWbaJ/bRjlHoohtlN9BFybQ04Rmjd5wWYE6QtAKNqsn02O10awN5eJeaJBmn+raxYqVk27h34mf8HPT38ThbU3mL/XDAW5seb/jlPQ1/APlC2jt1hvxiQAwKhOT0c5WeYNac4L//m+ERx1UMt0NaZh39G2Qek+ClfyTGqAzX+XHmDQyOd2eqDxa48PP2wFqvE3t93ohlZCmNay/MoZrpN2sHiK1Rr/4Lqn2aQhjo/L+Zf/zWbhyQg75b044rZjR0+GDr4uHOLnMiCNzvp8HeEQ8dtJBni/BSkmZSIwiRb27eIH7wG0q4b3LjpG6+/73r2VytCXcwRUGzj4IOIYyb111FAYu/t2ObyN+yWZJ/p9OeCO6K0aSYhYc73jxkGIwulXjIiY7c9k6yYDTXn/qWP0Er/8kbnCNtcznB5G3m7RCiQusp1U14p89SEPb3IrFjy0ZfdZN7p2+//+j+083/5p/RmQ8+GYwvyYx1kiPP4Y+tTrT3lxxWn1wtZP8RdjHmqT2RSchJiK3iMZfLP6xcSs2eVE69hjP/cAnVH45SsP2QjBMlQQJc/8f7UXozIzplb2sPvEj2C+zVMx2f/0vZQ8/dC/BTPH9DbuiQ0hGCn9DSnyuuz9ddonKaDYQgXkeLGO5tqw4P9HuQOcEcGnRP4NgPfMMpKQzV1L+e6WXT8K9YrPJOeO2ohS5jX88j7s2GPDvhUbE2aloDrYeMhiDdAPeH0e2c20Q0M1B7FyvOdFk0eqJ4z/41M09CFXwjgK9hHFIxl/neEpIZdojdDXoy4w5gDiFDh9hJeA4vjc0lcFMDnTB7CqKnqfeepXGeREX5diJcvvFKSs6zoFGRWX0rJL1SjIELMlqP0asPLz7NoF8qu7vuwCNUsigNozCVrPj8ldiL0COwUYO9+Ku3a7B3PXmmEXneu2oWi3o/HH7G0CXTZwfC+ZqFCAbKipT6rflRuaoyBzuWe3te7Hir6I3ivpMg1BGPAxaR64Jnvq65wmp5q+NrelvP1HAKkD2M3cdMsdf8XcmyIHJP4p3Q1pA//75z7/b6ht3rLuHK0uansjU7rRDBcllN7Ch3zMI/8EV9Z45B1qm/6oO5Vsh0d5iSbV69wZWIIrbBdodXN00LKQdR8AbhhSdQZeifN306DrY0ZN9K3PyUcqtHiYAurJjRjRmNU9MNmJcftl7lRFdRC7qD03ZZ9QH/zkNGSNKuR2ORsZW7RpJdC+pAnfnmbm8KYAKpElkJP/a+bYHxhk9WcKejoXN1QMktbRmQJdXPxH04L660+k8kfcOvClgBvTgZ/+cP+Ztm56oxiSkJG31SP42BS0UiJfD8uPznhbY64Ch0tAoGHAAq2ah5VwTKczCUYX5ALTqZ0AAu1VQoBVOMV0UXZL6ZwE8Eg6GpY4GXFcaxtE90keQVuGjjFWhHdYDg88qrU/qO9/B0ChixUIBJGFIOEearbgZHFFGLjNoWT8lj7n8whWn9N8rAfkvKjp4s7eigCAPMyxS/hvjSjN5kbLlDX076DIb1gN057LS8Gu9ot/rO+hbs4nDyQ/9bstz89T4W1uS+bUIo/ELmuG1uzJsv+IhEq4dKqkxgk0pzLwDbSj6X3D0rpEcxcdetn62GDTygmwrs+rl37nZnFKDBKgzP+KnyiGVhEjVOEHYtGb2JhF52rgSeZ/Em/YTf83WRKf3fJitJKgyoSb1p1V8vypPdV4XE5PnBodO4yZ3TONMlhvLfHJxxU3yxwxkPSJ+S3Y3lf4kdnjDipsxAvAtUbW41EYvWUi/SRka+luNzJYD1RTjKt/5dIAwNXcGUtTZXpzRI1+jnIVNbvYOYiI/crP8NKhSIUXc+zCv9dEVopB2Q8zdkDJwt/rbfb/17L0oLlnyd298XxaVSnShwIWov2UlvbkhdBybwsU1MkUWQd9dA2SfVOiXh/rdUqZOuhBw2hVfDj8BI/o2QAHZBIP3fXkB/+gpytkeC0aceQcity74WKXBUInBuXjOfwiz5WIr6/97WvTvE8vgNm/2ZA59zUX2Av4GREPtBpsy1nOg5pRFTH42FKks7VEP/BP/+y5aK4Ss91c5h4LE+HEnUi9NUopBhXcO6ZC4SKlqPwjLYhC+nrBsXD6ow/9dgLqVyeqXm116YYDNDdm0r+OLRoJsu0wpaEXtuWMoQLHGOHr9j7ypc9iCkyYxxZNNliiMEHhbg+/QSL4++vgIZWAUE1YQKodYb39hdWJG8XwLQe4szbgjHJPfpOLeK8Jd+Q9LkEFhP//t5lkdYfbPNmc3zDrO0iKG05VCNHYdRBB42UwcYAWXj04NkL6VAPet7jqz8Us08rYNwJb+GxLKG6mBdq1EOz6RAMYahD9+fnjLILHEcnzNAPQyk/wUDKkWOk559QpRCYlkQ42R/5Ej+6E0XZ3X3exK/Suwqrtul1Wm8My2NpJfmMWjRzRvw6Kt8oQSGmOUl1CdFp2HUgU20sFOdUtJ38d2zwTYy5mUwWbrjyjltYMZSe3jIVtot0lMSZHI21EUxJ9xJK/GAOREvjpGHelQ34QMHycudU3R4DrMzOPGGW9AAmcWSkina/7EgIJTJuRPxm0M+eezvdHPWzC+6AAP/TEsWY1Fcu9bJab0PJITE2PblEHXO9wa9m5awfWRzmRrfAjsCwnGdHlynjLKIB6rvl/+Rz8fVQNrCCCP1bv4+f/0So4I3+dqqhkSw24536QHItNjJC1fa/tT7h158FPg+ojXDB4V90vhTMId3gHpbQjGlp7bWllD4JujBWwHJjKcQQ0E2aHQLf/62kSwRCgOctP17m27wqeQ2c67VPi5UjaMUAbJnLY0khEGivkFaxUe60jgZqiU+eOpgoGtVy4jH0+cJEw6AG7mg97+NfEo8+kDb1/gJSnVxm4CJXSbLNeHm3FhodEtktfTMHY65RUl/kFByrx3dZYMEwkTPXrMmWlgJfqNS+p2v08LdYhzMTeqzu9kYaAsvUPMiNeXDqzAt5Z7jVNRBAvJj5tIN0Hf4mRnRPdNAK1O3mJwM3t1mBYZP590JgNAmsnLN+JiyppzLcBjcNgh6s72PDqX9k/5MpqlZSAjA5rJsfRK8vfLq5CNnRgyM5TnjHrJAR45srPguNKC5cu8IpSKMMmQBBjmdL6UWWkIWHTUHsbM1J7oBDjtEm6vBKYQIds+KHV3zZXHWAJr5ipnBvYOz3lrLtQGaS4y6LXDW/IOTtOz8cIsrsTw22tpGzNA7xpht9sc/hCVaxxKFHYjDzXIXvbe9q4FVo9j52Z2Guh/bHNH5eji4TZ+a4/CfE2S2gs+WCUKZDpPhNdn0cUgQ4DsnPXurhv4W2g+E+GDedxCZWbtS7fAbUaIv7d9IWBmjjEtNoGlPHfbM6qQ7oAfQmDwPkqyGBODshvUiDN5/3j40bz61GEaCrC1BvCfjwI5uDub4lui49IFVqMuAL/Aj4I2MIxbE/PLGZmuUrvfi83OPBILoBVC3l0XLqLh2yghSXfwi+j3f7rlNW0GQJ9LTV4THzdYbQwPp0raFZ/rbTR/A4FlvwyLMzennFbF+W4JVWmLS1UKTWd7oF97R7yUywPvsjKeoOuQfD777NmvrdwWUmlr5u8DbnwWCYnGtSco/lmqvIDlr6JwW3nNpGCB37flOuAo2QhLmkj1cyeV3r0U4T9gVQ3owktTuAgEhiBXXA4UWCzGn/4uvizoHfACXndmJnSKA1WFdKzPh50DR/i33mXX5c8nBj51cKr7N1yAxbbMlNM13mQJcbB8tDyBYB+xJ35KW0t1ml7fQ4OU12ratfPMo18qhQF+M5YkaBMzAHr6h3isjyINyzaevf8CpOuuz5iHCEbI8I6vjjQckXBON2qF8dPUt0SWQ/a/XVAAv/ff/1yd4BvncZMgMaCXhLmtnaV7qB9sO/DS7eyeBnqfi8Q1FSRDcx7U8psfR7mytd+RkYYJsEh0FQvXwvl30RDgQzXCX2JWtFI19+Hde3MywzZAFnY/rpWVqd+wSsC+NCfoyIDJW3GbLwniHneBt94MWqXTqgtFrpy8/VUPKiWkUg5K6A7tWce9lhfrdqVwkgm3lLYf8X0eTtH+78PcfaXPRjQB17rHPx5Wakat+dMqvOUaLx/sxrj6dcmSyctfbff5f1zg+TjLpgN8IxQcRC2IkTOH+1eEutnxG+IrsDgxd7QzTe9gwd4shyQ6/S6s6wZHVWMaExUzvt/gS37trEPQkxkOKUSSIpFzHF9QzEo4wjxqmAy3Uk8xZ4sS1JvXFdYv9QSnkZK1I9P0lPdQhk1CrUBoOpgUYA/65mljMtTuYIq3Jk5O5SoBn4LznaC3/FnCRAaFfR4roD83cporUASp75oonT4h0ZODzJ8OaOErRDSV+HeJuvKULMbtjAL+khepEE27Fq0KDGwT9C+L114cahgHLjMiR2E/CGRipJbuQuM7MVn+Hg99Eb2NHKkDZCibw630gvbLtXp6fk8gs7LpL1Ll67RlglXLLvKz/zeL4cjQABi4A/mcQ73rolZQAqPt3SDrSMP1qVghwCXRqndZXlt3jEDZqnAzbTHuFH/sh4dbsFtftDRyMPn/eoAP4QDGfHBw4gRmdb6eiX1oOyZ7J9VK+QfesHfcqnBkxRH+DRS8jjQuj5S+yHj/mqn5r+tRotJKvt1u1rzl6pbcTN+O8D9u3gIUfquFlLbKz/reNJtZBLv3FUMj+yI2mxZirWclLf9KyrTo80aYA9OZQLvK/5AM/8TX3tHWNL4nWJGA8rJ6g21XlxoL41RyLbt5neIi53fqWIRd8X5DRNHt128ZfApwziIU/i2xum1Va3VFg8IgUMLXwTUllxsxNnuR7N3d/y+UwpningnAI/P9fmwu+yZuZeVJBow9+viUb6I68GB2VXldUv5mdKPXY8N/2IPs3iJeo4TXr82WIauREQxLRO9PY6QfaQ8u/pHlKb6z/x2R+lrr/Jl98wdwMFRH+eDJ3GNX54RWRT5VsBHxhYAE4QUYYe1MEZYoABkKaJUSyP3ypDHRPTlRNfus2cjbMHGTeIMWXJYZiOUpEOyQVE0+fuyiX9ciBoBkrHhhA/45A0BbI8BNUR7APGxxhC4uv1GL6X6qi/3bpzGknfqLe3oQSr1/gZaAALwgg94oyjzrpZ47PwwW08ZSNrnXyhi6He/nvsPm1QBoviGvfHgf1leW3eMQNmqcDNNHCvR3/BPf/oS0X9twqV8wEi/sh4dbsFtftC/6KuFH/tC/6KuFH/tCQvx4iC1eV/PGCwzR622IH0hzSEjWobA3daxAXhHrkZ/nM/XC+nLjONQjPDtVo5DcRQG2hgE7rdvGEysEBH53v+5kHBV1YJz0gLuCf7SIR/4AHXoztXZ29T5fGv4d5L9KHOPoPCH/tSHZL6V/xypa6QDPc+zJStW4ACtdZXlt3jEDZqnAzbTHuFH/sh4dbsFtftDRyMPn/eoLlagVhGBTZyQH1V3efFZiCFZQTKG6v9p6yaGGRqfzPgXhQHKERRyGB2/Wt2sxJbk8ap+lQ8Hjskov2D2WtIdCIkccUKwZavUq4ytNEzlh+uLqi55Uj/YGBYDCVFtHxsWBGGOlHdZ1hmXdrn04jCb7N+rcDDCMOhPMwE/nPA5d1talPizJIGJtFJJBxeWDhzfxh8q1AZlvuJGQ6gw0uSHOKmmo3fe3OJ0WbNPvmWf0/8+zr4PpQ2wmYydUzm3owQp6Z02CIw3JTFgJ+YFlHk6K8xH9zUKEHvqluRjnJltDScYV4lld4OFRIyyNU0xALsRfrxG23k2PAgDfCsPl2OvVf10zPgjcPaCvct5ww7rGwhfa9cyVdcvPPqZI9ES2B70YaUZ19hgCwgieD99Ym9h9NZPPFWJ/FUxZabOSf1RyyBDWYqQWfBN+mgWtQmChliB2nw5k++v6qy9JX+BQoLgG+mty2cAP6IlWIBgRL9wBQfXLxhQF/gPVnrOMf8MDehDbeGsGNeVMIniyqpruGRZGn8coYUTao28ZNMnxZR6Hyb7U1fFfoa+JHgHn8Ujz15a6N0exkx/Niy79RkdG+x8dvZqNmqJ6rqJ1Di3DG5+bNQo6S22RTTVZB54Dy3Eh94k1EfuLiQFqzX82h4biNnXcM/7UyoHyHZHAGZdzF7a9DlWfHsumENyh7QWNmq7u9pxF/mM3bFzeluiM9DLYY8GvIL5eK5gNyu81kR9/Mg3r9Hkf9AiVLJeOcZrunNGw2tGuvQF8Jbi/SFNBzPXH0BSOoYibLo07OLd531O4X+yz6LnJ/ErHT1Qh7RzWSUdRRu/V8fP9hgcz5gaZDncRGJDS07DWrEp742glhUu9H6B/Fv4NAHP3gTH+56eTLFOkw/krXrmFt6DxLgplXoPLAOzyXrRRHOqw6E4WEXYY0Mk+ENo9UKtCOjy3QJ5HbrlVW8gfYMSADvkxvCEynsL///t8z//DFueyp/qVsp4ffeAnP7e9TBiP+agCcPr8lQH7+ptVBHHi/ArxfSPjfAS+q8lZdan572jSzGHzJQ7KEL0pTnzdCevM7Kf4c7DRJpI86uwz9U83SeRXLutUDaZ/J+3+qaui++obdvDnfxpZCXNW4xt6dS8Y2rDpEcOZtWynMsUQzIHRKuI++13wImM9tzeAl6j1sjIJG7v8wGpMUQ8I1SyBRuSC+jQKK42mc/81Vv8iLlZnRu5fH/Bl+EG71atIXxJzFxX61aEQgL6ZNWVGQEywrkucQdJ2EG+Y6mBJPIDHgkfiKtogkdmJH7ArD1QhI+xX4cMYEV6nITcilfATGRlIKyat2q5yIyDCQHD/XnzaYY4LCjYFqyYyqqfqBfZ3sb/mi1yzAqL7R3mRGononYd0jnhLPPJD15qvlPf8eybeoVbyXLIJowg2llacSO8AF+HS1BdYViBzf3YM/njIi27SyhfIMTtolGoy99yG7v6soG+ZJsv9/ymryt4Oe7rVNGe4pv778gfVnGCafbByzIrFLUNRjzWGILgDaPDYjbjOdHoP/Olj7LQ/7be2Ci/Hhy9VC2RM62ioylPQCEg+TbEII4V/fkD713QTQTeGiqOn1yWu963iyvVfMbDoYMZJsfHvpP1JD6BdxJdMWAYzUseRxGtXoV5H//AV//m1eYi87YN8ygePeH5qm+ibnmR0TCacu7m4IyZZc5RXm4OnZhUw1/7SGHMcq1lEbky0kEwAcNfia5dNTW/ARBKuoIwybxMEgtyWaYDZ+QpLNcf89B6cqw5HkwircFhOOt9MP3p1+M//R6ipv3fZLxnj8b/gxpz8vkSlTPr6GEWG5cMzhHw6y3qLeNpF/IshxME+Sp8L8ILE6KjVP41tWSA2/1MWTaLZali1fxz1eD0RISGqFkif+ai/vkpBJSlyfvs2D1XAKk7zetv49ToN4RMW+KejudidEYTF6vttagWwxttCLoPLaYlowEQGG2e7Y7H2eieFU1VZJ4LXj8XX7hJZ9UliBjGtN8+PcJHUk/n9NmRhUyIiEjUL9TrCSkPuYhVBLVvpVeMfWu1SnPG9r4QvOlxU3v/zJX68b4zxy+5T8HmORr+dSrUWcrqSgLEuQ97eB6ABbRfbJ/faTFESbwqacM6shWTHNJ6VbXQsybeOFkDGc0MlSiXguCTIIpIiLb9O7s4vqZVU1ZECFIH8vrl6wqJNx0O64IRK2XQHtxN7dbHdHfou0RYCVZBtvVTgpiEYwQ70dDirGqhRsDNLDOCSAWFT7JrXtj97GxlqIVfjRhDnJWHzvwn9vTS+TxZmCLdKct2pP4zkpb2/2s9LK3XLDs2nsFU4NSh7+cpkM/hP3HTItY1whFUF2kVZV1hNpeqnchi9rw9AWYJZSwOpPXdFaSpf1vMt3PDFgo+m/7N8AN1r89liE4T/EWFeBG3D3R/LaDqonWQm7Bak7Dho/YeddPur7sKwXHr7Oz8ZBptBIwtSCrj+knE9I+ZruNt+WBauUSnq/xKqju8cbQxA8XcU1ZMOzo6GYpPDR5Kg3q10R3qxX9sNKO4irpzdVjsKAGznGbO1iFrG6owaLNwvbtramMeHCgf6I90tj8cp/xer/IMJepzU5OyU6ibfkVLL8TZiQ5HLI1K2NJrGmfJpfZ0tPN/3NQhHDM1CQfbzSXhCzGa2QE6cx1WEEkRI8lkggNjdrrod8mOKebqpDMUm8Tno41Kdj/7KvIcRUciViOz7mkYHjs30ujaK7yGI3pGxCrB38emwBTQTJeOBwZVpaI8z4Gxao7+hOYU55+b6hp0DOjB7GSTEURFNu+oDVBGb5HFhNMNyWXphqH3JucJjbUMBLDAIkZE7QEV/p+KQOr/Q4ZqAH57JSjr92lOUhCJutalUyUC3upXmOvrA8jQ0q81DL+ON0oxFh19HBM1VpsoiUiL35Wqvfehahh/wXeSgVVFu7Gs2TtpzI3lVKAHGbzMnst+/CP4a1M7M5FDqdBGxKkp40b2Tji3qw+qa4x27QPEX7fmDCFWNcPM2dS/CPo07daAuoz5MIbhWaVgNLlji+5/nazuiurLgYL1BWLce2O2XpEtBFCGMf6RM16kVRko/MYPOmaPYo1e/d3e3x0lroFeKSb1uAN0YcBcbccmieiq/oIxNO8UqPN42HFTJsqqzWlX84F/jD5yMbOFsFtXwZs/z/8dwkelvsfjC/0SCtG/Dx/Pd//yMP//MRRn8m/XkYfybvkiSWJkG/XP8qsj9f4LmFyzg+RLumtezkuqGfT/1ZKZDJWMlkGzGMt3cUGXtoox+tCqoRBuJwDtGucrGf/5MktF79FZQ1/S00nx6Bv5+54Kg93fz56/Y+QyBl/Y/TnS5jnSZHJ8N4VVxaFjzgJntTM2u//xN6G1Ie5e7yaQj68vcx/co6ECckLjF0uerSBNqfMz9gTBQAE4qVmcaJITvgIJBmo+Rv4V5LrovhrAVO+9jfgXszgfEKN704j/sJNXky0n88s+KZD/W82r/qV/xkvhuLoY5bb+KQCmOEt/ZaEpI9yoHxAoTDRjnxBhw0/4Pl8T86DVSxRlBwyr70S+7nEFh3FLjv+K3oX29yrek8WS2yOnTI7GKn+xbA/t64m5LLhT0GpDkX0dp7Bspcf5e9enQfLTQTp3Is2xrKkAlkXJYqHyPX82c5j6J3s1NH9KO9/piikMl72+/w0jtAwVoooBhFZ4HjmnMNJ3veoAModPnB+C4XAokoNQr2D1gvMWLIsuAbT21mGlJFoRbBkSrZbXuCjs/J60ZYXXsaXnre9epj8eKtjX564BOs9GDwoo8D859tZQAwnR566z5fZALlXOdyKu1N1km5JPkqs9tXnYBp5JFb/KbCTYaTaim0Pj+UTcqqSHtlZiaq7zc7JTTvEQLVtB+GmpOZoeDAI5OZ+nYmxC2KPI9q7/w6vO25qbQvZosHtoaEPe8uNuYLX3uOjUT/gIZKM2e2+S0Ao4FHb+dqORRydmA3IE5ZEpbDxXD+VoCDtwWxu9nlKlZ0mVWivKkpqmnvRS8A5qm4/JpBe1FEzx8z8VNXQXb/zwtl48iE0hvHWS2yDCLZQbeBymov+E4GPBuIkWBICRek+935FWe/jrW3r3RIywYQlSrU09DGdo8iiedemVeLCUmmynYTXWGLmbIeEnBjqQEcykyjMlkZ43oO6Ir0UoD/lAPVbnWRyolezqXzIT8yhJrLnT1Jk1jKcstw5Qp6JcIXFpq4DuKiy3Fq+vlor8HAW5v0mK26xE+Yq1ybqHVbwmg37+NrVxH5wtqBDFdHdG7j6ENvQJutHwaTFKAZJANi/6WJ7XHzO0UK2sDIfZxSEBxr8/ZZJa4NR2/uswjyo/+Vtg9kefxLDRCRkLqp5mSb9vT63ke18NREfwyD4M54pH33pn85Qk8ZfFqn6jF+9BtceGCuKRXYhSj6d4Wz8HYrqALChVeM4XBXNwFo6Auon3uqnsoIubiJNGaiYt61FZ093RqE818zsOt5kMp+Bm7SApBp2CbGzzCxc53hFrL24LnjAfRVDfhlEn3ab3vZEPyoKJ6g5DV+JBAGHnUaR6ku6NJkjmlEKuSsTGnu3DguKkYACLk/K7hhnWMwviNn/V/etTnG94iAaKYjOLF8Juryx8ohCJe/9Jo8ZLcQRTwz2T9ypQjSdw/8CEk8uGQYERRG9TdOzyiiFbO8gqLrXcHYpKkV3bM+Oowebi7mcqs7b/KCaXkE1JYwX1LjPkl99HVNRJ7ooyLid/5TJt3zPjZ32IHuhKk5e0IX+8ZF/xhfdKf+gkhV4szSZbVOJ8peNeUuBD+fqdoRZWbi+DV6fm/gAMQCvJQjUPrPzIgEf5rV2no7DN7rgp3Czs6yKOoaLSLunsYxjRieyD1aaOv2Rc4J0/yJf+1kceeb8pQ/lw1+3+KelR0J8j4DNUcbseUzJgktE5q1bXtaY+LSk4ibdrdHnVKnxEukUWr6IvT0Se7a6ePnf/BO+1bZggwhPxHkvHknLZv24sAt+Mz8djJzhmKgnbsejRjZ0wnoJNhzbeUrcfPxxGub0nSLo7x3D4eyCKlibVeIBf660cv+WVa7ZlDHymYfrTu+BedO5W88NILs2orAAX9oX7+8NfyxwfbN5CUIuj2bO4Y1+47GhKPZG4JxhHqW6aB9MzzMDEUV2htKQbA17H7Wa2ueJufn0NNvW0ti+mOSRpBL+tDumoxsZWRFBJHGbtEy3FhjFVF1RaZH1Dl/DSXc19XK8WPBG4L/aMiiWOPJ8vf/kSZaWlY8Hkr4u+3Yv4K2oEWJ+4WHtQC/YfPyjaWpexLomWvwgQsZqoM5PsHvpHtB/zzo53/jA7nIxw1AJsDgotZh2Zs/IHWqBSod5jPd4eRtqmOZPzOX/OWyIoZtYrbZwfs5npy0b0n3ZVqUckgVXXtkO/vuHhOwaTxzbIFucjx78cAGPh/9CxMYoaWiXSFCvFBvrKue7m/RHHHhz68Cp3iugIOM9WdlQlvBtI4+tBuW+Rx2fWNOi2Fx+YGTaaa863kdgmjCr6g+afFx8VDURpe8qZA17zp8US/4X/WeqZe3u14hJm5XFJtvC7cV0VK1qSASylaC4qWd3UELe9Sp/5uK2+kdWmLhfmrv/fk/yAG0g/yY7FUq09rhfnebFPG7vwUkR+3zOWftf6fx/peSX2YPpgPUfQQJO4Hof7vZi6cqKx+uZlSTKu7UGKd0EA/jvyX/BIhJckugnivObezz0xSUA1vJEN38/fH8fH/jUKhUQIgAXwxFrgIGxWUHNVd/7spdTuTvtjLBteIQsS4LefSm/8sl/fwKk7MmNdTe8lf2gL/IhRPhN7GJeB+GchE+J2u/VFWpU5EGdDktpoZZKUemun4f4HQ/oa9M9UubrfwFOPRLvcZZ/8PfLNVhfy9r9R87Nriid7KeVh4Ipj7bugY/E+Lr/5h06f9VY+Il+DjHqiH+7w9dzVyman3dn60uEm+OZxjWqQ1BPtQpkSgCzY7egiwsOaY2LEWDrRTAlEVjX+lcAz1ib0mYnDQln3A0EfjWcE9PCbEQrMxZqPhVTiZ28dP7axTb3aeF+kszy86qApxVbbwXrIofEm71nrTCbtYZz/G0EJAHVFUOpecBrStuI4f/gL9c1mXiRjAng2oagemwD/iTs5PiC1UEc0kc3yEStUQOJz5B2f0nPYh0ZAmXfWuBmCKWVb0I4mUzq8t1PoT/J1nreD0sQ/ptjMH54rvQnUynSGtoiv+8IH/aChgf7yNpn9e44GkNyX9lcBxMCnovKqGFmLWhRooch2vbBQzqyP2TfKeMMLhr7UaWU8YYXDX2o0sp4wwuGvtNjolznrIkBhpAKzryTNCtkLAZG6zFnKdoPaO3ITBb1YfELJ/KjlgTlz6PrL5O537eaIT8xcg0oBCiYwJTg+dH3WVVT/gJh4Nky323msSmhTpHfQgWrdwIaP9SAUU9e//ogNNzarIFGDAFZcRgPxSoRNz0TPSEqr1txsbtZDXzatNoinU84Kd0bjbm9DpXKplAbW196bOIVK6XbEv4g77HAH4ZXSdAOD1OzH2SY/Ejl0dXQLi2YS/0qtMnrYCG3fLR/Lup4nPzDDuvnkwK3IMW8DeWQip+joLhzhcePlX5XlWPbA7tOvgayMgy2SKGnOi3dfVxUl02rHd9bw4qAlnflOMc3Jqr2yJwAVFYkZVZeu7F7az9PMuZc/7WwW/HgWj+zbdsTvkicqfMAD4DSURSnhwtciceJByHNNCB9ACrJBp58XCC+U9fJ5/LWM65CSEXbT0OogOBWqmB0/ZZnyB43NiYxCfhtuvKfocD5y7uYqNwDBGCk6sTt78ZXWV7Q1iIwAScRbgCTiabXDQgBGAKtKUkwsHmZXJABXHvW229fBtC2ohpVqx8xKUIbPgBu16Sxt5fpnuHUXBCK2WCAQzO8G4BMDJlkAmGHn4Oasb9QXxr+uQbPkHb/Bxp3fYLa/ByWZ7osewW1+zITw3Cj/2ZVnnQs9ljb5DTacOovAIqlweBKyHOAqwvuBQPjjUJykN8YnTNp/rPhUHKCDg9S4NLm+zyiK6fjn8WzP8YD6Kpv+WW9vAfOa/f6nKnhrhYXN6hluydNizLKRlqWN5NbsL9y8qXxrOS3R/lqEkyr+OvAco41IGYlZb/O/CxGiQe7cm7oPQDAADHkhIFlCwEtZFQpG2lOgTf4fw67OPt67HXhhRnKFlqZZa/z/JOe76UxR8myRd8Si8u2xpSGXHVYesuLrlR1Mp+HlUxV6VsleOtAg+JvCHsw6dV43rj4MnpIKZoPOo8w1v/ZIQBOEMilX/3Y/+QG9WG+StKsDszipkC5dbjZVyIGghZfLxCqqubVEa6PTPUKSqRoe8SuVSXwc/+5bi2zYMNNwshIh4twdl3+RWyFovjJVAYZhsyvQHGa365TugyPxtZg/s7F5oNdlFOBlLpZii8zLtLDs0ysVb0kF+M6wxpYcA3gmdXnyRC/a2z/CnQNWsfsxPeM2iAG3iYu/JBzJYtpgh+bd2Sf15/NGGMk6yJ/fcmo68jWZX99oVn1PYDHL7UYn2F2jU1/ZlvR72Fman84E0O6K6DpUf7KFU7lrA+IEzRqWFsPoHLcBxaJE4JpXDYA5q1lPRLzebpk0NJEWcqNqHrY5y2fw77RV/UjkWUUxqJ9TJyqasBsIC66gk/ZGzEKH6SXehDZ8AKlHiT/78AfLJ7sfMlpoZlMRsVFz6JVLJdq6ENxvyxt5gm1fDqLhdOlNOiByiHSN2JRh/uBAENrIxp1mjk3ywbrD9Gu1ySa2lZDRG3og4iXcmGe+WEBZxc5TViVo+cC3iAoTkpQfSRrFonU5sxWUX06OIiGGssQ8nnlw7Nqp567NtMkI9SPN899R5YmmIgu5K7vDyMeh3dS48NCdTz4eL0O9/ijM6He/YXZUFwXV/rgPh3ldYWAtOuLSrVj5iUoQ2fAFp1xeaP/ACGapKKqL+ALTkS0q1YW4YUpo6XKguWNvL9M9w9gTVTHz5YFSuyIABDLO274bvwWF1bnffc1wMmYbwzQzFVKqbCU1cscEci//BRDYnMxJ50i5L/grXVoRCux39qGheqkwebAwcGQohqDraAwsu5FOP+GdaZxfgcxR4KoDFPJBjZ832zOEhDST8YrUL2DeHlDL5cKP3NRxYxoX2YCjJ/X9oR+QkwzOSCNpVqx8xKUIbPgBEF1YdRcGOIG8IfdSMnqEFwjBpgGf2AY1pGlGdk+FWk+k9yg9XXvT5nI11k9matByq3HvFEAhEQQwANdTQJ0ogGvF2GuhT2kdf/gCFF4/wVpP4lqIQdiGRBJnOM0KiPB7uM59Ud5AWybAucNc9X5ZPzTNN6r3WiH2SBfaQbKH4QIjjjdP1E56r40GKyq9QuIEwUkc0aS7RXhOgc6EBO9SS/sqCXC11VDyUDo64oxLMA4PH5Z77x9Huj4AjPbqpHe0rBJLKBVjKw6mSvGQzRDv/czJg357KSiLJGNihNhPGJGt3u/ydwybgyC/U56H/960DrBZDPSBv+9QjMiJxU6meQinQ38wr53amUB+erJHicGfuv2iOnkVqsq/50p5kCd0lobyou5ew6iJKC9JXSy487Csi3f2Oul1QbNx4MzdVJ3LZwwpYhygZ9yr2RgPKyQb2BLWHN/nhblrFZH1GLwzYTWPgjsW331O++N9svvaSxP8lPt3SUqH9xa7Z7MTrdlfB+zE1+RebZTCPZs0qCudZDJT7gDbyq2GEoA1hH2mplHrI+9BAN0snV0V6jwE9p3yW8ZTGNSPyLrlM4/7tXYRDKXhDJao86YWitmscd12HH2Iz40XzRLXAMM0jqZXpCxqaTUV/gP7e1/xW1Z/4S7AzSIa1H/qKQmjp8lodpz3vGhbYwUg5RXRX6szIDDASuVhNOhPH1IuvhGtPYdqXf6kNqIEJvMEUUCxG+9/8u9cTut5Z3pHpXgIkSwVyuSkLPxVLjhnrPis8LjeqOZmJT6DkVqwCxPM8twG90CWHo6J5uAUYkk0+9YeUIEK8NZ9YQf0fnqxIpabybFBbEjY40QTG9GWznwZPJZQLWYkyzSX///q2HzQExNGvdFgV54cKed7z5seK17Ujnps9ily4KgB0I2S6Y/BBlbz5ntDVBlCqX/kzOGqmE7/z5o8ohRPgZAvht5VbjWeAi9KD/Pt6fDWKajopJ288zOa/DWY51QwhhnNKR+sYicOt4DiAStbt+8Z9MGiEpDN0/+W8x6IPR0Je5f1VECb5musWWVDIbA+EPG99aJ+zhVJWuTU/5eJGkq0pjLdUf2QIjaY9gC1+gm5zw52Lq4eJYyb8/xvupP66g6yk7dfC3WofaDVkyW2K7K/f8ISjo+Tfn+SdHKrZEZcahaGQgk92Q1+Irh/YpEG21DaIK+Ff8/iNifl5SvILJakneTuCYa4OZ3CN/XSuPuUSNzGbSQ6PTjkzntYw0OGTU6rGI9bVO4hVeG8OO5L1OGKml7MqnQ58/aUA7kDAaxoEiCgdYNvUExFsMMglfvDz5yfho/X7nXEQhxqZzbntHa55DIv0EzLQqfgNz5Iw+f9uZAQT7wxXLgMvKOvqBNwPshahPP+3LGh+nxeysbTiuLPF+9P8PKDWCyIuXsP/BggEusZTNcXGHlin4GBkq7r5DhMRZlFqmQmjPrr1jrzR28mmuuSvo2+3dql7QZodta7wHTyGkbLJjO1hti/ySHbS1jcYPvp8qHYFeX7cr//B/jOfSkg31hjrlni2QXlJlp1VRC8WUsyV1n1kRP6s5GkHaCnVc7l/7JBN6QbWv9tbrN78ySpKZz6enixBaHqqY5VTXUomzXgz8Bg2afnyeQS9dYAgoiIb1zdvm8LSCmWkPmiDwxCnp2aPM0bfWZ8GY3jP5oO1ZiEG1DTmVBaStkmPcxonsLOa6gk+lY9EtegER6Uvct7kb1IY3m3faBAOTbGqUfpE2IRH3waFzHyyqX2heSRkPtCDYF0331EzuqHlgnBEkKMBcdmf5hFZLxviRa7fHdL0U5JZUc+jl/g0h2IdVOa2aK7/MXSdLhwBmvr/z8fEuEZTPsGMoYJrn850FDspPQ72zrqB6s+e+dm2PsxFq75FEG7DmdTW69tgeV9m1aFG0PniD/pLRbm5auqLwg5XfUv9d/Hb80Lx7560yQxVwffEu3yft0lq0ISDTLw/4X89q+ou1x53mhQSxPzV4RDfFACxxlQDeh24tt2bNCum+umAoj2Rj0ZPHp/O64RAba2VD7tAuGgP7Si+eh24twA3fAG+gdR55uK405WTB/je+BdWSbkWmA+4ks3NN8qzf8cqfPehgTavkvcD+4iD80TctEuSJUUUdRNA/x+h3ogqVkfYxf9mJZILkf1EuVMfYcRzYbhn3qqet/UZQ8sNSgfp6fXzF+AdIuDp1z3fNmVRfU+e+D0uWd4ac9pf6HceOLNuTJ5i+7pQB+82HcKe8pGYNACHbnZ1/EOqbjUzqldq+rzKeUJ2mL0yqKdjA0QeJF5t9jJWIgxjPqFjoIufLQRdL82+r9djxruPxfaaDHIDqcUGVee1rZ9cQTsG7UJdOVLfEnwwfBDKPnQVhL3k22guzLJ4m4Iycg+rx5KTNlHYlKDP9XM/eN9svwPe86IIuoBjTqPcvNfsxNfkXmmceVH7G9Wek0/f9P/d7LnUd01igSjPvC+bIESpsUNWwW+60/GPCpCezIEWHwA/yuicbBmTdr/3A7IF7t4uOtry4s9oNUCTL5FHgk9byQGT1+qJcc/hnso5uB4Nx/yb3xiNLVgXzGYCNnviMjrzcfP36XGI5zlciOAoqwDxFDMn4awXgfLIjfQNwKXfxzDnFZXzGByCQm9/NpVo7JJQh2g42iYJJLD3n57gjhvp8f4adfjZgsbR7HUWRAy3PK5/kV+yPox1wSRFw9nFSPUYsfausG5MW6UXDMrkH12SrO2f3/B/O9yucl6tID09xB3nKlMIeRfIygk3SvmWY2VW/JpkLJp97UUJIuHpxPwB0a8jw91A6c+ky1lm6oSgLm6C2JIKBEdD4QUyUterGjrHt/+0b2+J2a2relHEprO9qYIEejMDvCVjbg4bS/Wp+LQSgHke5RBChgi6jwzzq1W1f4dFU6Z45U/8Y1PUsbeYq11dzn7lEEJxP8xe4rvrOXHYhekJOiH5U/DuzBygWkfQS4J9yni6UxAWXRpc793HGVGvum3uaJpE3xyVM0rTtMnrt8NE2Ua0ZUXSHgzj5VQ/t2OvhzQo+DSZmZU+cyrUD+aJ/jBvGIvsB2jst8PTF+bfu12HiwTLlX+aJb/4Z0QwyEi5on93i0Ca9rr15L5iw6Y5uN3RtX2KcAt1ovMgT3rmb+Fw5qE2HBmoa2JoMf/XpcQTtTwp1Qu8qLuXsOoiSgvSV0suPOw30Z1S0tU6+pK5dG42JOGFLEOUDPuVeZAiVNihq2C32Csar1GLwzKGpBT/3n3Zjz3xvt7d7SX+K/Nv8cLTsMt6wIexv4WdXyfyIoyGV+zE19Igv11AZWC9sXZJRwe8gsPkyGFyOvW9l/cejrzcb6AMX//nJEl//BhLc4ZUDJTqlo8JDRhCMumHwA/yuicWYC7C6Ovnwh2g42iYJJLD3naX/v2z5FHgk9byQGT1+tA+13RgqvSy3+jL/8iv1/zbVKRWZKyVDpj6jFj4D+5/vE27HsJW1P+9kLEK4UQm8fX8NYLwPlNpfvquU85UphDyL5GUY39DtxX/4Qm/o+hbTCsW6Bc6osP+lpBbEkFEatCdf0+P8NOvxswWTpfR1EYWn+wcQPqjvW4eDB3XNYF1/2je3xOzW1b0o77CylJDRpUj2M/V6fnC+d6bp/Gxym0F/yDFS5y1nuUQQtRza8mmQsmmfK7mbmU9OJ+AOiiou78eYqamhVb3KIHQzyWoMxTWHL75jzyNte/xBQQtFErDiXA/ultGBtO6MMHMskV3A/v0WRnU/63lRw+aJpdSYw4XlNA9E8M86tVtX+HRVQo16VK6X48pVphvdbzL+KOwqg45ceDlUPWvKtgvDc3lx2IrNdk7/OX1zeou/opQcc0T+6f4uXVd016P/yDZjoIoYVYWOGOKgFCszSzohhorrY8kgJ05/Ir8GcfKHlVUyd6r4SDCqjBfMXU17FSWNqr2Io0R9vbCthYzpevmLcovOoa4ZS8vM12gHU1lBbbQawwR0aOfzJCJChrq339jGAUnssl/ghF2OcE94SpemMdXYBKv6KHOvFEcRuMvJEnIZ6nuTRxgfXRm+5HSVKveei9ivi393RwNsemasCO2MiaUh0UGXu9FHo7/b7Qvft5JxHXbWZ2m3qGR/ZDw29QyP7IRLyjeFAlSSOxhwPlp6b3vRpYe+aMqSnJYaWScYoywhE5uzgyjIqLodcdcBYgZEYC4wF5oNBotmeVEs3xKpDQ1s27ZSMkk8sh/IgVfE1v0iOT6QiFHnh37OHfNvcJm0GFcYYz4C9aGdr8f7CHcy/+n/KGtoSbFvKk1rhutgnbNfg0SV21ebOXoVqZa/G3IKymbwHcrGBXiR/KTby9/ri/kOHxQMIF2ZxsSSi8Nu9fRV4f/F3zam55Uyv/n5niH85ExiSvq4tblo5V+MM+Y90THVPRsvO32nbxd9EgfmU8nsH5uSQ8LQebL9ykhWYJkKJq6sEBKf+Zw/SjPgmvfeT0d/vU/L1DI/sh5HHaHSTF34qb8Q7RPGZs0eZQOjZ0X+bdAkSbVDpTq+Ihr5RlHKIWnJrjx8/lVmRnoyeRY+Uj5dowC4V86MG9I3gVCkIYKVG92sq85NcBI1ZV/df5h/gAgEpbGfXJy3aIq/RlGNf2yiXY3Y2gnrx0rUiSwotR3QUuz9k0wjLUn1Ck7G41gHv1q+25+iuK3prgRUJS7v9B6PAbKrtZ6PAcoH7XR4Dk809UVH8ijGlRDszz2Ty9JY28y9EDeEPuleltOCEcxHTdIwjc0BbQVGt9INGI+MM20X97wdF1CxAiblSkHuhA01e0Fn6bXG30OqX+ZWOM2CE3HLxQb5zaPw9u/OUZ9Q5cijHWPXz4l4QeuP6jZ821G9OdMTijnhQD9y8+DcyiI2I4uQCa61RFCZt1v7kEZxnEPdfz716o0QjHMhM3SIc2CDKZVAok/MlAxR4nS5kpDZ7RVxqd9jLSMRn04YGGS+fuSMtWXv/kNPSOTaDvw64AG/0+lPGqC5dHf/ZrmI2AgdVZGbO6rnQ1HvhjPxbgPT//473h99flbfspPuUp0SGdDsFs7lKdDAm6zHcpTqKqfw6i4NmR88U/89D2at39ylPG7+XhhSmjpxdNRYVZa4DUCGSnwMoOAOBZZibbqIPoqZvOWGJ78WF6NiieFWNlS/K6YO68oWJRC5l+2lYTdj6pvsRG3xNe4ESazAogmfGIg/4o4UXXxYMPeB5bcgm/cdkCRxOS3VpJnBmRg/iXkJcrqHe5Z42KIXc1p9/xWgY+zlVACvf8de+c88JBnsOEmfKiB2ivR6IWpE0HU6btzuIEnQeTLl6AvInsuwKh9TltqLbY3uA3XuMOXu9jWh1K8g7fKTCdHnUVJAIQQvA2PWaR61XOhqPfDJr0ljby/TPcPUrVeIqbgIeVDkjQG3RX97OTZ0uFcA96Og8D0JanYFz4OwHjIUlNBc+DgoFz4Mv0kRgM+NqLuPy7uXVSPOBYqSurTBN8TXvhMFci3fZ3eqomvscau43cIgMEVRpbiPf7PGfEvIShxrIx88zXYBNe+AHwvOrg+y7WKVtvNktK6Z2ADUe5WxPjr30xhnWy9eyEMp6f+bn4ohoH/m5E2nBcStCnS97MjQmNlMgAun+BhOYOd5f0J76DoKi3aFpU2OsLto4++OHm+BLH0NsokV9j6L9urif5IeNoiC709PJ3QhuWjT7Jvgj2V4RItRZvHnhvJ5Mld7Ly+5Ml/XA0018dk0KaV9SvEU6NiRf7G7HG7Y4FCf89Pz6meKvtHrfexr//97ff/97UWF+9uXd6efvTXxI2Et5ojZyrdV056zhx5y3k3ChPobYf3xsm/6+/Omg62RDX7LlOr6FdBXmiICNgTwQh/kT6HVUvVZuwoweMA81iLZzqccpKio8djlJ17BfdLQE/gm/YrPZKsmIyNRm5yCden/ZFnSBIYxEBQqf+UryoFVKr6ewtnqPPYdqTfVkzo1ff5j98XhOxqUH9+tELlA/y1P+vb7BIddM4kKZwW8Oxk7V7juzK/IDal96JkO81HN65ptRwCFILuGeXqFzXVAxuGx6pmm4qe7RdPbWOTNA3shsF0JL8jyfl8huMr0/+SpE/NGTmVdVtPBQ0IamhQxgU0KGMCmhQxj7B+MTsPXAA39JvOiJySTxxIyeNbGjU39/uInWZ3n93ZBPSXwy5rqTlUjQxYqJhdJOFn8NE3JHYC/yXqq52kOL+LrfZmz7l85OzohtDiTXm69x8eRYsmCJ/Wyqt5wFSI+n4Lt+GBWjQbddvgpwz7sC9vdvkRZq2OdbZ7BpbICfPj/Y1RTcdikWZQ5IVq+7Mbz+NVFv9MuFHXKhSkzl5NuW3z/2yK3yDoax4o9vIfM9uacfePfSfqR7OAss74dM5vgfPUzjlsiPYFX5mwvFP9WZG/nThoLPo34op59qx4qXLz/o4CuG+ROA/JvpzY/El2m1M3m6XZ9oqpTj3WpwXhygYbHrM9vHki61bxO8cnoO5pst12xeayD/hdPsdW/f4uQ+Bn2xj1xtkZkyg+djRo4L5Aivs5ZWcchawuIJPyjiZJ2QzvR20+iU0rCrW+TqO3BlJP8c+9p6iR4I0CDU/7A4zgo4sYDdfM2UKh2ST2P1KavKUOeK4aKuVNYyPI0i9DG5EKDFn9nmxMypz4uofAmcru+35xPcTPz8KFiThCE0sFZG7BUHOTKjEX2+G4dm6IH7fcGv17Db2OlA5iCmDThGA5wFg6NuQ68l0KgTSLN2GRtk7vAtqMZmlxf2+Wx81c10OY3ttu4ys/ovA5WmXAsdItPDvdWQCwJzY4fFeTvu8sm9Vi5PM0q2OvX2ykDo1dOX5NzOndf57m5cvwDMs9h/e+LjIveUAUMPO/50ofTX/1Ig+pUXU2kRrqvvPODnF1O8DXERBK5FMO+c8CWBcmVj6z4uE+8DGe730uap/grmo0T0+qqB60R3nPuxgvzKuB4Me/QfEjOqX0smav30oIk6Z46WUqtrS04Qlb9Tiu6z5LXM4UGqC0LN+FYKPShjNoKG/J/+mN8CsD00P8rlUBGWbnHBVoiACAqKoJvODuIAjg6pvcEptZ1C77Rqx4tOMsgqjBEdOYzAJLFl/bQXdGo7A1RN5nx9OUpwJ6QiBcdk3pA1bhejck4wZNIlUWxl26lLoOxOjJoaHZ/YaNr6zO8/w1tMmLcTVDx9rh+sq5CAJyj8cexaz7/loQDwblh9ALor/w1tZkj/7KYV6B//zv+VNct3TLmE0pAFvuMTa/WhlQly6kzzL6mZPmGfUCcfdS5dQjOgNYRmAxnUO9gbFbh2xN/W/9Nl9xDh6yvLbvGIGz9i1bCeS2j4f7uNbGShrQVpvP+9a1LsfItu1wv2KD/4W3b6qhPkVmsUjzYpgZ8/xhvPbx9Zxe9iumAuQn6yEsxSrRg+6h2EY1yNb3kTjSMCMgFKbUpD2hxVtirqzqyQzXVtK/ZCZWLSOVJle05ZdnfeKxN0x3r2qp6ulq4o/G2AQAyaG7JC3CnIHbGIc3DLdHgaiQVu8RLXuIFLGaQk9FLhDJYmsM/CEx5/4kLueoGoH3h3bmzUAfQteIXCTfNHya09Uq6m/HztCkaHshYndx38H8UoXo4+uJBWIt1LNTu05BwTJ30nD25M9Hn0OFjelc0Mh7DsMCudg6tsHSs4iQ/mH8l1cCDpgbpQYRefLh/ke5WSGAgNib57bzSkes78VBuXamD4iiL8dslib3FHI6eCT8jYFJ/+9fIwHlZLFDEnLoy/vzEVLmgUOP5MNa3BKl+KW1EST49uzt9ySzSOqEiP6AC1jzNLO2RY9vFMLF2qUAjxGJ2NA5HPzFAbVOwpyOAhjAXJmJJ9Qe3QpdEgKWvk4QDf2yU7z1zWE6BM2EwA6FxqeeX83gkNfOwFXbesHJQ0c3D2k0ex0WxseegunFFT67FfkueUVsEkZ0jujAHZkbAt1r+m7sW8HCDfDC/SEd1ri31p9OnkQGs1uVT2wzBSyBLm52zqw2FfVX/ig2qc5q8Q3Kew/8ts+cb4bu/a/2ntUGxANbpLRJxdI7JUxQ4Di4PSia5eQMFXaH/UqiivrHmSo5oJ2i/8gFy9omMjkATroLg+iWjX30EftiDQYprig/bt+oTWNjecfEduawJc1iKlbaDRZsOC7D8VMdDMQizW9ZwPzDX72l/rLJXsDE8efPsk6J+lv9f4vBaHCl1ELamgFsH0tBZAJOMKJzwZiRDSBBwJ2ry6rP+BoSk53A8aMbHHjjr3MkNE0Pai7Mr7WrEBaN+D/4tEWQhcMozm/5nvLlitVU3nNtrZPDck1ic24nszruM9No99ItZ6KCVWjXXZmjqd08D0Vc+Ovrg/ld2p4T9MZ5c5Kw90bS/YFc5+4fpyyDDX9Z3q86K+d/8HOptoc3vH5ydxthlZr9qHDNqHBMo1LfOpLLVneEQX0lsMbf4+oWG0NjBJkPLHu4I6dq41Kd/p/56QCXF+fai+w8BipDWoLhW/WgcFsi4cWyGsaoNafKUz+AMWHg3HrR7CcRvb6Epdmg9YamDubXh1h8K4vfSe+w4ln3FQAOkJG5SuPXbGRzB9xQZcsy22ifHHVgxB7CLxBQ2WcS1yA5GpvZ3Ucp5Uos7rsbpX270qLs5qa2EtQex2Frc2R5W7pGgb8mPUkgb9xinv8GvY0wheha15wBPxY+sdkrhNvJjqiNje//0BAHbrG0O1SHY+lszz/vWtS7HyLhWzWd84b3tSkKWgtw+bcpst12xdN9hiZNi6C6nXEDoVD7rSC/9EM+WcMeyDSnIBTyQUCi9W29eewU3BbUXiSYfWOF507xQuBfYIimWrq4QIXcehcwd8p7WrKgwRnP3wEaXDGr9oHrpmg6aDEnSk0C3ponvMGCzXwolhT6/dC5bFf4Q2C1sTw2V2YUCOr44ArpV5YD6/8KJrlfDfCrYPtjmrl0TrWtdrKiWnd8lA6/cPQxvforwiYz/YUCJ8nc5lbn4w+kzaskw9aQ/hp8haYJTGJ/zxQ4QXDczMzkMTMTjGfZbkPbviSwSxTTvvprZUz8nxhi623/LMjIpUmdJIvvaGaIo5GX0ybWkDqTOevP0ruKM5vcLgz8YroldImGp4NWrFmwftq1h32nDPo5iJIihA73lMJlI0QbinGWfM/5GffEuYRNdg42IrGfYnWekAgNtqXk5ruAEOmt3DOHP3ekq35Wrv21uIcqIdu1jtsgrR966kEOhFPtndHfTkR8pvPdTs0V+bzU5Nu+fGXrR/K787MiS7VIqUqO6/mJSVRHqJvDY95j33gg8OWf4Zj2/B4op+lMeyhCQ+I9zSKd4SBET1Ia1aW40Zy0yDBuxJ4qpYdMPE6hPWMFBvQj5Gd/mSTF5vba47VVwh0DhmEgLhU9SGnSICS+kbWJ6d3PHYHLuH0fz1xjIDHqu/lNVinnSjRLo9YaoRrA7U0lE+HVETAE+CIbIIQ4r2JcGpttxrOc7vu4YkWqu2buLDkoxmcWEdZ7Mwt7e32r3Zv5DpvQXiXj7zEQ/e0/MO+BsS1pOb4Y+IgP5wF5nbplJuhMjhCfgExiSE6iju9/u5RFAdfg8LfluuQj6HBLdGCn1Harz4qes+0DjWWq0pCeffayFPqFUMsxJx2TAoJ3OYajOhU+UHThLFWv7YiOtn2dei16eouRtBEw6Gm03ot16pvfuPGcSck5pHg6kl+wIaU8ADlrE52Iym/3je8OZcryk0iZB0veuYwc0s46LbZpBOp6AE8qNqGqWIkWIDKP7Rn5iHqjciIF/HsskwdrboC7Z0QZL+uUwifT5kMTy07X4sTPQcnogLldQnCVobvigfxN/wBvwbj8GxW143hBxh/Izw847oCx6R5BZMt1nWy6ctu0dO/rHJ81pRD0DLC2sUpVNPQZBhWt4aGSF9iN8pS7hWxf2eXCmHE/Eaqwdo3Y4Ah++9m3eDwQCt0le8q+WPjTs4ha4DVphC3b9ZZLvA5tfVHvcQuNlxusqupUVK/kW9EB7GwDybeEk0tmVHlDdD/AaVxGAC+W81tKQGO+P+u0sPMJyCL41ZzNP5UejcFTL8Ys+HI+W+0/ZXJISeUg2UHYb18YQjN2o4yiXPXSM7qfho+FwC5HsVxXlT9ZIjTkUJyGdBXzNcCIyt90U93MyKsKMmv1uceDR20Jlyanp0cTEEqx/rEznvPPcA3/54OV2gZ1iGt6/5eYXcpEa7tJWwKBAFptxI072/0wK5EpIhzTCz7wgQO24bSJbKTo8Xx1PavWjmolYkZEruDwLCcCod5s0chQI5ireDpditRgJ5QTdE3XNIbIzLCPKDInMnyh57+DqIjzi4Jx30YpPHfUgRBbQsiWBRyXCXr97C1shL+VifpLe3qe9ItRnwPn9k6tEmfPkM7SCRMCgwanHb7eWaANLZXaB7O36BdJRP/lNypKjYU7Oc0X//708//8w9SGyw996haIV/qAkUrlqtIOlt/0OjHoQF9DoxiQRFXIGlhLCl/7hmPA8z63v4GIwlBl0PuviZf8dhvDdyMoEnH9NMw3naU/iS3WX+VF59OdPQ/WncX5i1X6ix/IiysxJMko+7veOOZEDoQHYCSmHOIdoRVjMAZ6zhY4xjxJauSjCBzHRMUtEkOtY7aIs6pNhQ/evG5/862pHOnahTIGmlLpMz0zmNY0dKJI127l+6HOtznKGC5y4k5iXJJP/+6w4nN/b09SNrNckq77hQ2f6/qBD+h1mAg1bR13ya30E6FWGO+X3Cz3yKMQl089jemgB0R8xHE8GTADs18ekes02t7+ONJO62xgfG44GK9uFH7rll/f4P4lqexH1fKIKXfS827LgH9kuhNhh7Izq2LpqHVpWCfsLBbWv5hJgJF4JMv6ib4xC09Z9Q0oRfiFzbsU6ZJNpCi+TNn7eRTd/HGkndbYwPjccDFe3Cj91yy/v8H8S1PYj6vlEQTn4X7HiYiiDkKTXE4NidnLpqHVpWCfsLBbWv5hJgJF3sVIa3k4tfa6kFheNvZc6ljQ7P+MQtPWfUNMf38caSd1tjA+NxwMV7cKP21MeyolMcNr+e1Yrj9pyoW02Vl8S1PYj6vlFXpqHVpWCfsLBbWsq3MUw+EZY8rqPtU6AYkImy7BbWxXtzt2+MQtPWfUNMf38caSd1tjA+NxsxfMV6USvUzt5w9edM+KpxuFH7rll/f4P4lqexH1fKKvTUOrSrGZ8+Wh/mXdjsWfy/M9H9TO47aZXzqzlo0G3QUIL4xC09Z9Q0zTjZNFAfPA6Q+0RfWfYnU9uxdMTr8GTRos0ewG+Jut9AyPRcAHEBV+JansR9XyiCl30vNuy4B/ZLoTYYeyM6ti6ah1aVgn7CwW1r+YSYCReCTL+om+MQtPWfUNKEX4hc27FOmSTaQovkzZ+3kU3fxxpJ3W2MD43HAxXtwo/dcsv7/B/EtT2I+r5REE5+F+x4mIog5Ck1xODYnZy6ah1aVgn7CwW1r+YSYCRd7FSGt5OLX2upBYXjb2XOpY0Oz/jELT1n1DTH9/HGkndbYwPjccDFe3Cj9tTHsqJTHDa/ntWK4/acqFtNlZfEtT2I+r5RV6ah1aVgn7CwW1rKtzFMPhGWPK6j7VOgGJCJsuwW1sV7c7dvjELT1n1DTH9/HGkndbYwPjcbFbMG2dzaNp9+v14jY6HCI+AkXglLUMdN/EtT2I+r5RV6ah1aVYzPny0P8y7sdiz+X5no/qZ3HbTK+dWctGg26ChBfGIWnrPqGmacafkxb88DpD7RF9Z9idT27F0xOvwZNGizR7Ab4m630DI9FwAcQFX4lqexH1fKHrOZiHNuy4B/ZLoTYYeyM6ti6ah1aVgn7CwW1r+YSYCReCTL+om+MQtPWfUNJvj8+GbdinTJJtIUXyZs/byKbv440k7rbGB8bjgYr24UfuuWX9/g/iWp7EfV8oe9qH4X7HiYiiDkKTXE4NidnLpqHVpWCfsLBbWv5hJgJF3oK8tKpaakVUz9duCHR/Y+N672SL4xC09Z9Q0x/fxxpJ3W2MD43HAxXtwo/bAylJuEWjuLrZUYB1LvsqdABxAVfiWp7EfV8oq9NQ6tKwT9hYLa1ggaunqjH3TJ5ynVrS4F3pFVm4CReCTL+om+MQtPWfUNMf38caSd1tjA+NxsYq9BJLRdkgsZh1FD1M9vTDaq5B2+V2ygWI78S1PYj6vlFXpqHVpVZb08obZ3VSnrZE+COqNkyMH6WP6XliWiP3XD7qkn4xC09Z9Q0zTjQU/xZzPJMs6w9E/WfYnU+Inqn7SDAfBry7euxZ38i9gtrYsWaQkF+JansR9XyiAK7PBETqAjCV4p83qH2u8dHgg7FAB8rIwY/9hrz9B9m9KncXnZ/AX6CZDsO2CLLeBRfWsqhlbT/5VUEoe0U9xc1zl6YaXaXeKAnUgv8SzoET8V8wDuh1Eux6v2QeOu80Oapq2Jvck7w/+C1pZaA4kYg40Cs64j2uZjdj/VvPNxSGIgkFVf2glqnOUA8xJdeBdc26WTIIyoFr5VbIXbapKhve5+ewZ4herwbnxKJNoAjHAHMPHYAi8wIWMneQDWFkCvvXWL5qyIbNKJ/Vfkx10CE7P1pV+cu+bVMvYAT7WqLya30E6FWGO+tJeESU+NU/C3G2Zdr9yI/71L9m06yxll3mh1+WQYV4h8zOXHmZ7IO3yfot7hR+6sQmNsm/c07oQB5jWXEihi7QYtTMNF+1WxkjgrGvV+/gilS4qTFr3HGqY8YpKHqHQDNgWW9jUTHkLyyJX3dX9bq25vfB5ZBhXiHzM5ceZnsg7fJ+i3uFH7a4Wwc0Ok7uDqu2cJjOTmDjfaEizeRQO29DoXuPokTTKHKrkHb5AHVkoixLOH0lt5EbnKkNUJ/wsLjN10VOqWXLIMK8EmhY+LEenIO3yAO5xWT7QtUbIRLbUW0AF5MXwEi8D9Qx2M6kiFwdt6HQvcfRImmO4Fr043CgAzjbyWc8YfrESvbhR+66B+fx01iBuOo3w5ZBhXgk0LHwvst3DN4smjUvzQPPQ6te4fbtmvg4vHqw7y5S777rK/tjcOwSUMvxF/5y/yLjk8uguYcaRC6Es7v6z5zN3Tb3ULvrkHb5Xet72DuVcloI4/x/BNNfuRH/fJvw9H+XNfe3//emnflkGFeCTQsfFiPTkHb5P0W9wo/dWITG2Tfuad0dgTeXEY8Z9FjSUu0+HiXniGoSRAmJSHP7KX+Iq3QKLHnTLMETckPo9kfIWZ8IC75cRk0bWmN/1urb5AHvlkGFeCTQsfFiPTkHb5P0W9wo/bXDsoQ4E504Oq7ZwmM5OYON9oSLN5FA7b0Ohe4+iRNMocquQdvkAdWSiLEs4fSW3kRucqQ1Qn/CwuM3XRU6pZcsgwrwSaFj4sR6cg7fIA7nFZPtC1RshEttRbQAXkxfASLwP1DHYzqSIXB23odC9x9EiaY7gWvTjcKADONvJZzxh+sRK9uFH7roH5/HTWIG46jfDlkGFeCTQsfC+y3cM3iyaNS/NA89Dq17h9u2a+Di8erDvLlLvvusr+2Nw7BJQy/EX/nL/IuOTy6C5hxpELoSzu/rPnM3dNvdQu+uQdvld63vYO5VyWgjj/H8E01+5Ef98m/D0f5c197f/96ad+WQYV4JNCx8WI9OQdvk/Rb3Cj91YhMbZN+5p3R2BN5cRjxn0WNJS7T4eJeeIahJECYlIc/spf4irdAosedMswRNyQ+j2R8hZnwgLvlxGTRtaY3/W6tvkAe+WQYV4JNCx8WI9OQdvk/Rb3Cj9tcOyhDgTnTg6rtnCYzk5g432hIs3kUDtvQ6F7j6JE0yhyq5B2+QB1ZKIsSzh9JbeRG5ypDVCf8LC4zddFTqllyyDCvBJoWPixHpyDt8gDucVk+0LVGyES21FtABeTF8BIvA/UMdjOpIhcHbeh0L3H0SJpjuBa9ONwoAM428lnPGH6xEr24Ufuugfn8dNYgbjqN8OWQYV4JNCx8L7LdwzeLJo1L80Dz0OrXuH27Zr4OLx6sO8uUu++6yv7Y3DsElDL8Sn5y/yLlV23w6vzdux1V4VbBiMDcwvWClgrEbhR+66B+fx01iBuOo2qvwTTX7kR/3yb8PR/lzX3t//3pp35ZBhXgk0LHxYj05B2+T9FvcKP3ViExtk37mndHkNWy4jHjTvJEkckdnUdeAmVforYMRgbmF5h0lKYu5tDe2bkEea4GrqQs1fXbOp5cRk0bWmN/1urb5AHvlkGFeCTQsfFiPTkHb5P0W9wo/bXDsoQ4E504Oq7ZwmM5OYON9oSLN5FA7b0Ohe4+iRNMocquQdvkAdztHDwZbE7HryI3OVIaoT/hYXGbroqdUsuWQYV4JNCx8WI9OQdvkBHXn9fJYOAPrtdmd2lpR6cg7fKyT7ryrkDXk3beh0L3H0SJpjuB2M/FDCzVu3XCjj/D9YiV7cKP3XQPz+OmsQNx1G+HLIMK8EmhY+F2gOGbxEwjsV2CI2MGyfCw5qjsSyHaHKlLUQGBAkO1vv/A6qAfmbWZy/yLlV23w6vzdux1V4VbBiMDcwvWClgrEbhR+66B+fx01iBuOo2qsAE01+5Ef98m/D0f5c197f/96ad+WQYV4JNCx8WI9OQdvk/Rb3Cj91YhMbZN+5p0QgA6/GXEY8aPqa1aZI7Oo68BMq/RWwYjA3MLzDpKUxdzaG9s3II81wNXUhZrxfXZsuIyaNrTG/63Vt8gD3yyDCvBJoWPixHpyDt8n6Le4Uftq8fUYm+E5Cn7Nsajd1BZAGDYbEaPf23odC9x9EiaZQ5Vcg7fH+MIJd8noJFtD2u4c5M0kV426EZWb05uOpXLIMK8EmhY+LEenIO3yC09D86SuriLbOfTyxU6ktuGytd+RkYYEj57YLa1i4ERC1f3t0oU223b0PVRBFHCAotoXlTBoEYEtSpGaY8qr8desxXYTJL5kzg2pFmBXFzzFXYyBd3cEOFZrMTyhGDpjUwZOyLq0ssXSmkF4sSUSz/qr1Q3Pm+HmilZ7lVatXDdeh5YLzIjmziPEUdO5//yj6nRPWQPp2k1waFi1YkM0ocLRjnMx5Cq0z6QvwDRcPH5frLIc2quUl/Sq8vOd/w9lPMkXBXUhsWKKetFYGkBO4/+4WrTLtGT8DISb5PLrc02T2WJyL/pYYC7YkINfOf4WfTV1cWkOZ3KkQJjKCit9dGQZjc2D4Jd+EjFoZaxthWJwSa1YRalK0NGj+s+nr7k4HWZPA6K4LGSm5QRu4Ot/imjTrGgvSUn3TQTbxxiEjpZSip9gb4v5vSnt+lfKZLR0AIJxiBEVFyIEYNOFn51XgtlaK4/9ufUpczh1Ahbqaey2a9HW2IhN4iwO3YN2ORAtE39yQsyQkdWXIhKDQz3RyKxJsfjQG0CvIX0sBt9Q9XhdFnqLezsOoCabET/B9FG4FT+AM+lDAn+aN+CL/681W9Z2UCR33FufxovjhVu0641TxoX559Ea+7N3HZLbFPAECAhF+Mq8ADSHCDtBb6o1bt6p9PL3/XZGP6IVG6Vtn2hDmdZ/ya8t9Js6r80N4w8lv5C0wCt1njmtsT3H+lxzUKNF4drMoVOv2zzNgUOJbrv+ww7FFukfV1zAkWoaiUBLuaIPuOEFtXsEJQUf2TO5IVC7s2skbU4VyI478K3cE64DyS+b6gw+1ihdupyeIO4uBnbwwWzCRwLSWqz4BUf2hcCfiPrtL8k+FWzWJtVOld8nPUoplBkNwA7cZmtPYKUIEkg1TtjN8OV/xcgHbJKGqZ838XNMfg3Ck75OOEnvvkEjAj1vwo+K+uMVfABB1wnBSa0xlvmzmiDncPYV1MQ6+ArzKVuDBzdAbH9Wqs2EW/Jc8H/S+InTE/CQDCcKgMCh/zIf6aUsUADEONU6WfUjqLhRp+ueY90UK8v2EfOdh39N4WJaroybUY5/SIcFYa4Mh/BQQ5RI14z2dHZS0GuacEMGpCPX2zDQkcos7rkD+J/u8FKrD0S3oOwPjD45PXw/a6yFUpyvsk7LH1RfMUG50vZq6q/yAVdGrdp2QD/1GcCT5K56IUVse/lKuJ/B6FotX/n5MEIuu+auURA6zHwsEwjYe8AVZC0H1g9gxbv+haeHO8E4LFf+M6+UvHn0tCNp0jvx5aNQZmJPs6MkZXsrlUjGPRlC7Vl91bnVBFKkfupyJr8i01y8cS44nGWANtQoZuFTHGbDXm9Z2EbfVxbTebCPfNfTDXx+jnp3iZiVkebNfUWhICUlXyfCMuQB+cteaqolmlwZc8wdBztJJCrQXOEGvbgx1hPOm+XHtzhmYHC4B7hu/i8pXbgvFZdynICKFCqAgPByPkZ0dS3dOs4UkJ3+AIdVHOfxei8r4gIzz1hw9ymgnRVC38r74AjW/VNLAHjeb4SSzFUJkWnE/WS3XTUaV02naQsz9Vx2uGvJMjfOxHhCWcnGHdroC99iNWquXMV4rnNtSEcghOsOOpSZ8FCpYDKsuL6KFeHYIEylgXBRDgv3gWRWUDR2RuKjnLcA8eR08JBDUWUvzfhxXXeASfJupurgnR+xEJV82KsFGPCgeHw6qhmSbXv2M6qpeyTAdnCLFHWg3gOHUMk950hAzELois3isR81Qu7ox3ulH23ul0ExKcMqKqVINOWqXWx6e4RR7f1Bd4mwiHJ4PpmtbnJaqv98cxnb/q7Ehnf6h+/ctJd63v5xxxJ5GO1fZ3K4igdGkHrb5aFS0YItfN+1bD8fJ1XpTUW0sdHQrCPeGhWM3qZMR4+PnwVwx5S9+LVggJTedX3fgjid0UmgRlU7xwC1tg8oZyM1/8oYvCQze2cg301Miws7iWwLZN3Pm1I0w6jdHgBGYaqIptc7p6MZevw/KLkG31CEvjC9kj7pGXuhTG4DV6rM2sfoPx1c22tZi0dTXhjkiYCL7Qk45ANWwAXjdcVx8uOqJZc7kLxm3V/nDUg1CW6jOaBxKf4TlMY4eyxa39zw+IDRkQ6/kbiMUG+bvPJ3W8ATtnsJVh2GQpkdNSLCz/S8OStAuZMkZ6Lt5+g9VqTGNswZMsgTf2Ue33T9A6wO8CwfWdTWDDmVFPeId//TWxJxNoFn0hZSAa6gBXmkd/nKQx7kTzI2F0mCToL/CxmCpVqs4DAIsDa+E8RBNzY2b3CurLTuplagYMfAhbwum+hgtMJunFjyXobYB1kbmGdHUFz27FDgZ8pE8L6/fPEY/CH3kX/dGPJOETC9MQWta/OzsTIxhtMzdy9fc4h6ZGCsUduzLAgiIOd5V6iezX3KxzyLGG4B2441PWERhpZtQL6tUyQQxN8jnXz5ULyQs3CJONREkdtQ62pVhgPdMcZ8DXPtmcyGGTjG+1EPVoVtAynFWUcwcXSk5gaGaShNlCTIX8H6PaGFjenYm0uanb36/8vwJX6zos1XQrN+KFM59XJkKFDRbBRK/CXTHM9FEeASJD0aAsITh8YAyHt5ToHT/7hZKCrmF90LX/JEs2nTRIEFUuTXLCRN3pzZrSz3/VzwwPO0Cz3PCoTRdTBWV915gH3uG/aC3e69opnoSm6pLwQxlC1r2sb/bC9dKwoM7FHKIY7ioP8EFL/x/CT9w9s4yj866wlzIm1mpTL6BZHgUx5DcR9Ig26BFwkrYb8aSTik7ftmuoJJgn+2ZKzX7tsEZu10Kf5mnHXCDYhOzb94SkNr4nN8KJ81k1TVFfD2Zpuz4nLOKIl88o/gjNywKjoUICGnjByVHfUDzgCu+zcVxF8oyRWiOUAyfYpJHTsvN2V8635s7/+14bi3nQdoETbE5V6DxwAAA;" vertex="1" parent="1">
          <mxGeometry x="180" y="-340" width="1000" height="592" as="geometry" />
        </mxCell>
      </root>
    </mxGraphModel>
  </diagram>
</mxfile>
